<?xml version="1.0" encoding="UTF-8"?>
<svg width="281px" height="582px" viewBox="0 0 281 582" version="1.1" xmlns="http://www.w3.org/2000/svg" xmlns:xlink="http://www.w3.org/1999/xlink">
    <title>bush 1</title>
    <g id="Page-1" stroke="none" stroke-width="1" fill="none" fill-rule="evenodd">
        <g id="1907_U1RVRElPIEtBVCA1MDMtMzQ" transform="translate(-1542.000000, -1470.000000)">
            <g id="bush-1" transform="translate(1542.000000, 1470.000000)">
                <polyline id="Fill-159" fill="#3A3852" points="243 347 237.344992 378.151953 235.644648 387.493373 235.625435 387.640784 232.99006 402.112775 232.436087 405.179581 231.885316 408.239977 230.713327 414.668412 210.48851 526.050824 210.366828 526.733404 207.712241 541.356011 207.302365 543.592824 206.594688 547.480009 200.331271 582 64.6719311 582 58.408514 547.480009 57.7008375 543.592824 57.2909615 541.356011 54.6363742 526.733404 54.5146922 526.050824 53.5188217 520.609407 34.2898748 414.668412 33.1178857 408.239977 32.5639127 405.179581 32.0131419 402.112775 29.3777675 387.640784 29.3553524 387.493373 28.2410021 381.369375 27.6582097 378.151953 22 347 243 347"></polyline>
                <polyline id="Fill-160" fill="#2E2D41" points="233 402 232.445963 405.003138 231.895129 408 33.1048707 408 32.5508341 405.003138 32 402 233 402"></polyline>
                <polyline id="Fill-161" fill="#2E2D41" points="237 381 235.883074 387 29.1169262 387 28 381 237 381"></polyline>
                <polyline id="Fill-162" fill="#2E2D41" points="208 542 207.591272 544.191523 206.885577 548 59.1144226 548 58.408728 544.191523 58 542 208 542"></polyline>
                <polyline id="Fill-163" fill="#2E2D41" points="211 521 210.010278 526.33124 209.888565 527 54.1178414 527 53.996128 526.33124 53 521 211 521"></polyline>
                <path d="M69.6121241,348 C69.6121241,348 -21.1785005,231.622711 4.61174528,130 C4.61174528,130 107.782328,153.256238 99.5300891,348 L69.6121241,348" id="Fill-164" fill="#1A3B37"></path>
                <path d="M207.564818,348 C207.564818,348 265.479698,329.680107 281,130 C281,130 138.27993,223.963529 164.131064,348 L207.564818,348" id="Fill-165" fill="#1A3B37"></path>
                <path d="M129.279419,347 L86.9074506,347 C86.9074506,347 27.6020949,248.401102 124.842345,66 C124.842345,66 137.104453,106.018408 145.991434,156.969203 C157.531675,223.121951 163.377191,307.696377 129.279419,347" id="Fill-166" fill="#216458"></path>
                <path d="M129.44522,348 L100.386924,348 C87.2858276,264.982738 131.727552,181.298361 146.049505,157 C157.515356,223.490143 163.32319,308.49592 129.44522,348" id="Fill-167" fill="#1A3B37"></path>
                <path d="M107.261576,345 L107.124868,344.996809 C105.878591,344.923409 104.927988,343.847938 105.00429,342.596945 L116.484656,148.134565 C116.560959,146.883572 117.619658,145.942136 118.872292,146.002771 C120.118569,146.076171 121.069172,147.151642 120.996049,148.402635 L109.515683,342.865015 C109.44256,344.071329 108.447446,345 107.261576,345" id="Fill-168" fill="#1A3B37"></path>
                <path d="M163.290405,348 C163.290405,348 251,306.709483 251,0 C251,0 82.0867064,227.372431 124.97506,348 L163.290405,348" id="Fill-169" fill="#216458"></path>
                <path d="M142.271828,347 L141.579152,346.894538 C140.385322,346.507846 139.727758,345.232719 140.107613,344.037488 L223.573533,82.5822089 C223.953388,81.3869774 225.230211,80.7254456 226.420848,81.1089423 C227.614678,81.4892432 228.272242,82.7675656 227.892387,83.9627971 L144.429659,345.421272 C144.123222,346.383209 143.232638,347 142.271828,347" id="Fill-170" fill="#1A3B37"></path>
            </g>
        </g>
    </g>
</svg>