<?xml version="1.0" encoding="UTF-8"?>
<svg width="59px" height="62px" viewBox="0 0 59 62" version="1.1" xmlns="http://www.w3.org/2000/svg" xmlns:xlink="http://www.w3.org/1999/xlink">
    <title>clock</title>
    <g id="Page-1" stroke="none" stroke-width="1" fill="none" fill-rule="evenodd">
        <g id="3699673" transform="translate(-594.000000, -87.000000)">
            <g id="clock" transform="translate(594.694000, 87.323000)">
                <path d="M57.376,32.422 C57.376,48.266 44.532,61.11 28.689,61.11 C12.844,61.11 0,48.266 0,32.422 C0,16.578 12.844,3.734 28.689,3.734 C44.532,3.734 57.376,16.578 57.376,32.422" id="Fill-171" fill="#D3AE8F"></path>
                <path d="M57.376,28.688 C57.376,44.531 44.532,57.375 28.689,57.375 C12.844,57.375 0,44.531 0,28.688 C0,12.844 12.844,0 28.689,0 C44.532,0 57.376,12.844 57.376,28.688" id="Fill-172" fill="#DE4446"></path>
                <path d="M28.689,52.01 C15.828,52.01 5.366,41.547 5.366,28.688 C5.366,15.828 15.828,5.365 28.689,5.365 C41.548,5.365 52.01,15.828 52.01,28.688 C52.01,41.547 41.548,52.01 28.689,52.01" id="Fill-173" fill="#FFFFFE"></path>
                <path d="M52.011,28.688 C52.011,29.309 51.985,29.924 51.939,30.531 C50.995,18.528 40.926,9.049 28.689,9.049 C16.448,9.049 6.382,18.528 5.439,30.531 C5.391,29.924 5.366,29.309 5.366,28.688 C5.366,15.827 15.827,5.366 28.689,5.366 C41.547,5.366 52.011,15.827 52.011,28.688" id="Fill-174" fill="#E5C5A7"></path>
                <path d="M28.689,31.114 C28.509,31.114 28.333,31.031 28.22,30.878 L16.779,15.476 C16.587,15.217 16.641,14.852 16.899,14.659 C17.157,14.467 17.523,14.521 17.716,14.78 L28.88,29.81 L41.566,24.241 C41.861,24.111 42.206,24.245 42.336,24.541 C42.465,24.836 42.331,25.18 42.036,25.31 L28.923,31.065 L28.689,31.114" id="Fill-175" fill="#1B1010"></path>
            </g>
        </g>
    </g>
</svg>