<?xml version="1.0" encoding="UTF-8"?>
<svg width="439px" height="604px" viewBox="0 0 439 604" version="1.1" xmlns="http://www.w3.org/2000/svg" xmlns:xlink="http://www.w3.org/1999/xlink">
    <title>desk</title>
    <g id="Page-1" stroke="none" stroke-width="1" fill="none" fill-rule="evenodd">
        <g id="1907_U1RVRElPIEtBVCA1MDMtMzQ" transform="translate(-1546.000000, -346.000000)">
            <g id="desk" transform="translate(1765.500000, 648.000000) scale(-1, 1) translate(-1765.500000, -648.000000) translate(1546.000000, 346.000000)">
                <polyline id="Fill-212" fill="#604041" points="381.859107 527 416 16 23 16 57.1408929 527 381.859107 527"></polyline>
                <polyline id="Fill-213" fill="#2E1D23" points="409.760215 64.016225 24.7633236 86 22 46 411 46 409.760215 64.016225"></polyline>
                <path d="M422.561607,43 L16.4470999,43 C7.36593251,43 0,35.8859211 0,27.1142745 L0,15.8899325 C0,7.11407886 7.36593251,0 16.4470999,0 L422.561607,0 C431.642774,0 439,7.11407886 439,15.8899325 L439,27.1142745 C439,35.8859211 431.642774,43 422.561607,43" id="Fill-214" fill="#7B5250"></path>
                <polyline id="Fill-215" fill="#2E1D23" points="372 127 362.307613 297 75.6880072 297 66 127 372 127"></polyline>
                <path d="M233,219 C233,227.282828 226.286392,234 218.002296,234 C209.7182,234 203,227.282828 203,219 C203,210.717172 209.7182,204 218.002296,204 C226.286392,204 233,210.717172 233,219" id="Fill-216" fill="#604041"></path>
                <polyline id="Fill-217" fill="#2E1D23" points="358 338 349.157942 493 87.8376787 493 79 338 358 338"></polyline>
                <path d="M233,421 C233,429.285364 226.286392,436 218.002296,436 C209.7182,436 203,429.285364 203,421 C203,412.719228 209.7182,406 218.002296,406 C226.286392,406 233,412.719228 233,421" id="Fill-218" fill="#604041"></path>
                <path d="M177,526 C176.222416,526 175.444832,526.004499 174.671641,526.013498 C135.00167,526.548916 100.976873,554.543609 92.1378935,593.260152 L89.6821334,604 L58.956577,604 L56,526 L177,526" id="Fill-219" fill="#2E1D23"></path>
                <path d="M261,526 C261.781977,526 262.559561,526.004499 263.332752,526.013498 C303.002723,526.548916 337.027521,554.543609 345.8665,593.260152 L348.317867,604 L378.911629,604 L382,526 L261,526" id="Fill-220" fill="#2E1D23"></path>
            </g>
        </g>
    </g>
</svg>