<?xml version="1.0" encoding="UTF-8"?>
<svg width="1610px" height="1610px" viewBox="0 0 1610 1610" version="1.1" xmlns="http://www.w3.org/2000/svg" xmlns:xlink="http://www.w3.org/1999/xlink">
    <title>Artboard</title>
    <g id="Artboard" stroke="none" stroke-width="1" fill="none" fill-rule="evenodd">
        <circle id="Oval" fill="#FCE742" cx="805.5" cy="805.5" r="796.5"></circle>
        <g id="glass" transform="translate(156.000000, 434.000000)" fill-rule="nonzero">
            <path d="M444.321052,739.020045 C425.622491,730.085747 387.615636,697.495863 322.983656,635.463404 C309.87434,622.874165 275.525897,589.675125 246.766699,561.755442 C147.278165,465.102576 74.8212438,396.775498 43.013367,369.464971 C4.09190755,336.062878 -3.63141076,323.676692 1.34809709,302.457733 C4.49839799,289.157811 11.510358,279.817408 22.2823546,274.334998 C28.9894469,270.984636 34.1721999,269.461743 52.6675149,265.299173 C70.5530941,261.339654 76.9553186,258.699975 81.528336,253.623669 C86.1013534,248.547363 87.1175795,244.790897 88.2354282,227.734509 C88.7435413,219.916997 89.6581448,211.490329 90.2678803,208.952176 C97.9911987,176.057714 123.904964,139.203733 160.590726,109.152001 C177.460079,95.3444489 190.772641,86.5116766 212.51988,74.7346467 C244.531002,57.4752064 271.35937,51.180587 329.589126,47.1195422 C407.025554,41.7386579 419.830003,43.9722324 453.670332,69.4552885 C482.226286,90.8772996 502.855675,115.243568 519.725028,147.427348 C529.074308,165.295946 534.358683,178.392815 545.029058,209.967437 C550.110188,225.297882 556.105922,241.237483 558.138375,245.298527 C565.150335,259.207606 572.670407,264.994595 583.645649,265.096121 C601.023116,265.197646 605.189643,255.654192 615.656771,192.504945 C620.941148,160.524217 625.006052,142.452569 629.579069,130.777065 C643.704612,94.9383444 688.723427,52.7034787 740.652581,26.7127922 C765.854988,14.0220273 813.312747,1.43278849 840.242738,0.11294893 C875.912274,-1.51146899 911.581811,14.4281318 940.950745,45.1905459 C971.539149,77.1712736 991.660427,115.040516 1013.1028,181.032494 C1020.82612,204.891131 1026.00887,215.754426 1033.02083,223.064307 L1038.3052,228.546717 L1046.53664,227.937561 C1057.51188,227.023826 1060.35731,227.836035 1065.33682,232.810815 C1078.751,246.110736 1095.11224,286.518132 1157.91502,461.752214 C1176.30871,512.718325 1181.08497,525.510617 1186.47097,536.576964 C1191.65372,547.338732 1197.54783,553.633351 1201.30787,552.516565 C1205.57602,551.298251 1209.23443,546.526524 1215.43341,534.444915 C1222.85186,519.825154 1229.05084,513.022904 1239.31473,508.149651 C1245.9202,505.103866 1246.8348,504.900815 1258.41978,504.900815 C1268.8869,504.900815 1271.42747,505.205393 1276.5086,507.235915 C1283.82543,510.180172 1293.68282,519.114472 1297.34124,526.119773 C1299.78018,530.688449 1300.08505,532.312867 1299.98342,540.434956 C1299.8818,548.150941 1299.27206,551.196726 1296.12176,560.23255 C1289.82116,578.202673 1262.17981,632.113042 1235.04658,679.525739 C1212.38473,719.120926 1199.98678,732.725426 1187.79206,731.608639 C1181.28822,730.999482 1173.26003,725.517072 1161.57343,713.841569 C1151.20792,703.384378 1144.70408,694.247027 1143.58623,688.460039 C1142.26513,681.048632 1129.66393,651.199952 1104.66477,595.665166 C1082.61266,546.932627 1066.45467,509.063386 1051.10965,470.280408 C1035.86626,431.598956 1024.99264,408.755579 1018.69204,402.054855 C1011.17197,393.932766 1009.34276,388.653408 1007.92004,371.089389 C1006.80219,357.281837 1005.37948,354.743684 998.672387,354.337579 C994.810727,354.134527 990.136087,355.657418 970.319678,363.881035 C907.212038,389.770195 878.656085,399.212125 848.372547,403.983852 C835.974589,406.014375 781.91136,405.709796 759.960877,403.476222 C715.043683,399.009072 683.74392,392.308348 665.45185,383.069471 C642.688385,371.59702 617.892469,367.739027 574.194747,368.652762 C531.005138,369.566497 505.701108,374.947382 483.649001,387.942725 C450.824899,407.334214 409.058006,415.151725 347.373082,413.730359 C318.309017,413.019676 306.724039,412.004415 243.71802,404.999113 C219.430217,402.257908 199.410562,400.12586 199.308941,400.227385 C198.90245,400.531964 351.437986,549.369255 372.778735,569.471427 C407.940158,602.771994 427.858188,619.726856 443.812939,630.184046 C460.479047,641.04734 465.661799,641.961076 487.815528,638.407661 C522.367215,632.925251 582.324555,629.574889 597.771192,632.214568 C613.522697,634.955774 622.668732,641.148867 628.156353,652.82437 C639.944575,677.596744 615.047035,697.698916 550.110188,715.973617 C541.167399,718.410244 522.87533,723.588076 509.461144,727.243015 C496.046959,730.999482 478.872739,736.075788 471.251043,738.512415 C463.629348,740.949042 456.31252,742.979565 454.889803,742.979565 C453.568709,742.979565 448.792446,741.253621 444.321052,739.020045 Z M496.874577,702.824655 C505.901314,699.800706 528.924568,690.02327 580.853666,667.142056 C602.152709,657.667015 606.311094,655.651048 601.341317,656.75983 C599.921381,657.062226 587.671321,687.301716 569.516423,689.519279 C530.062479,694.256799 534.87493,702.824655 516.922879,706.352595 C505.766237,708.469359 466.590748,718.066212 462.432363,717.159028 C431.498037,710.203944 331.183277,618.744294 202.374773,480.247424 C138.883336,411.906175 32.1951774,391.274302 62.1152632,352.482775 C69.4911501,342.919904 99.140704,352.482775 87.8315061,359.001642 L85.0930575,361.118407 L87.020114,364.847944 C92.8012831,376.137354 111.666151,395.893821 148.888766,429.86285 C200.817864,477.238052 242.09744,515.9446 321.918143,592.450513 C393.827773,661.295754 408.939953,675.004323 429.427604,689.519279 C448.393895,703.12705 459.043418,706.957386 476.082653,706.352595 C485.312239,706.050201 488.963503,705.445411 496.874577,702.824655 Z M1188.59992,593.534302 C1211.01097,555.969101 1235.41366,555.58721 1237.64462,544.550534 C1238.96292,538.272792 1255.98574,583.011762 1247.46751,582.708 C1244.32388,582.708 1240.58544,584.389372 1237.64462,587.224482 C1229.32921,595.122287 1231.54654,570.954679 1224.1438,593.534302 C1218.56639,610.544959 1214.40868,619.35405 1209.94675,623.201698 C1204.57216,627.960633 1200.31305,627.049348 1193.11312,619.556558 C1181.04563,607.001073 1166.54436,577.434931 1121.01242,472.434623 C1073.55373,362.979143 1054.89476,325.717704 1043.33431,317.009867 C1037.7569,312.858457 1060.16086,313.874399 1058.43693,320.658411 C1057.11864,325.923615 1056.3237,330.970483 1066.36303,351.221265 C1083.70371,386.457626 1118.36678,454.929782 1155.78613,537.046705 C1181.74643,593.951404 1195.44549,604.244193 1203.96371,613.154537 L1197.57504,613.154537 L1203.96371,680.612667 C1205.68764,678.688842 1183.52955,602.039631 1188.59992,593.534302 Z M382.184021,335.014964 C413.370608,331.645431 431.609553,313.164053 456.396287,301.932277 C484.738494,289.066788 524.661388,293.240429 571.8984,293.240429 C614.15775,293.240429 638.030218,339.099246 682.524436,349.820488 C706.90483,355.742698 722.244161,357.478518 749.570518,357.478518 C809.099313,357.478518 878.075509,344.408814 924.703011,324.39583 C940.347097,317.656764 950.60718,311.22402 960.664092,301.932277 C974.479648,288.96468 988.39679,283.75722 1013.69145,281.817187 C1031.77357,280.489794 1034.92271,279.979259 1032.78942,278.753974 C1031.87516,278.243439 1042.74475,310.815591 1032.78942,309.079771 C1016.739,306.118667 1005.53277,309.079771 988.872831,309.079771 C967.133648,308.977663 985.653995,305.097595 972.346363,314.185124 C954.467408,326.233757 913.127999,362.175442 865.687816,372.896683 C825.256998,381.882104 722.04099,372.99879 695.324143,372.896683 C667.8962,372.896683 620.819315,333.279145 611.067158,323.476867 C603.448284,315.818838 614.216291,300.502779 611.067158,281.204544 C609.035458,267.82852 651.845775,183.385981 654.080644,167.559386 C657.128193,146.831654 685.368816,108.643613 692.175008,95.2675888 C700.200222,79.3388874 723.165851,72.5998216 738.403597,61.7764733 C758.720592,47.1751637 809.099313,33.0951975 838.660539,27.3772021 C851.663415,24.8245256 893.490192,41.7634897 904.258199,44.3161661 C933.209915,51.055232 957.921298,92.306484 972.346363,122.632281 C977.730367,134.068272 993.794336,173.011671 1000.29577,200.070042 C1006.59404,226.311557 994.607017,217.79606 1000.29577,232.703691 C1006.8988,249.857676 972.651119,247.407108 972.346363,232.703691 C971.533684,194.413544 948.473895,120.488032 926.836296,86.8948098 C917.693648,72.5998216 901.947977,57.3858696 890.265706,51.6678744 C880.818304,46.9709496 870.964561,44.9288084 853.187191,44.3161661 C832.057516,43.4993095 814.991241,45.7456649 792.337792,52.2805167 C752.618067,63.8186144 710.866644,88.3243087 692.175008,111.094183 C684.45455,120.488032 679.476886,130.698739 672.975448,150.303294 C665.458161,172.971061 660.175742,195.128292 654.080644,229.844693 C645.953845,275.894977 641.788861,289.373108 631.630364,303.055455 C621.776622,316.329373 595.872454,321.230511 571.8984,314.185124 C551.784576,308.365022 506.597468,343.721905 481.38619,323.476867 C450.360471,298.562744 463.811989,246.079715 460.561271,229.436265 C451.621793,184.713373 453.735165,178.89327 424.377108,150.303294 C398.87928,125.491278 324.59642,100.577156 292.190813,94.9612675 C280.102201,92.9191263 291.555429,84.9547758 273.473303,86.3842745 L300.564938,81.0747074 L326.672276,86.3842745 C341.097341,89.3453793 357.249352,93.2254475 362.531772,94.9612675 C394.429453,105.682509 423.889095,126.512349 444.002919,152.85597 C468.484898,184.81548 485.449589,236.583759 481.38619,266.705342 C479.049736,284.369863 473.157806,296.316389 460.561271,309.079771 C430.288948,339.609782 380.817066,352.679485 300.666523,351.045773 C243.880523,349.922595 206.395668,342.162459 167.183868,323.476867 C147.577968,314.185124 144.225665,307.75238 146.257363,282.73615 C149.914423,234.950046 160.987185,204.726356 191.767432,158.165537 C207.411518,134.4767 212.186011,126.206028 212.186011,122.632281 C212.186011,119.466962 212.186011,122.803014 212.186011,127.635527 C212.186011,153.672827 175.290457,210.342244 157.817843,266.705342 C143.494361,313.164053 110.296284,298.869066 103.49009,302.340705 C98.4108416,304.995489 136.426799,244.050135 140.661401,264.07278 C120.039652,260.29482 157.106747,295.703746 157.817843,301.932277 C159.138446,313.776696 155.907936,321.638939 167.183868,314.185124 C172.771042,310.50927 173.024414,316.635694 182.471816,323.476867 C208.47757,342.264566 226.103153,329.807505 300.666523,335.014964 C318.240724,336.240249 365.117746,336.954998 382.184021,335.014964 Z M360.826716,321.838054 C402.526733,317.452381 428.563818,309.802953 439.446506,298.787775 C462.228954,275.737496 455.007732,216.47992 423.681864,168.543499 C416.765764,157.93629 399.98405,140.597585 391.135509,134.988004 C360.928423,115.507458 316.380599,111.121785 276.918143,123.666849 C239.794957,135.497966 213.554458,158.854222 193.721523,197.611328 C184.364446,215.867966 175.312491,241.468054 172.057855,259.112736 C170.227124,269.107991 170.430538,287.364628 172.464685,291.852293 C179.889322,308.37506 219.250071,319.288244 287.088879,323.775909 C298.98864,324.591849 347.299637,323.36794 360.826716,321.838054 Z M751.728513,293.998876 C847.613394,286.76771 894.741525,278.212527 917.23681,263.953888 C925.3799,258.861517 927.313884,253.870995 927.212096,239.103119 C927.008518,217.307772 921.308356,180.948244 913.979575,154.060526 C903.088192,114.441881 891.687866,99.2666162 867.767541,92.7483815 C858.504775,90.2021961 828.069978,90.2021961 811.885587,92.7483815 C799.569165,94.6834823 780.127537,100.590633 770.966562,105.173766 C740.735341,120.349031 718.952576,147.033054 709.07908,181.151939 C702.564609,203.863914 700.834202,221.585363 700.834202,268.435175 L700.834202,298.276468 L706.228999,297.665384 C709.07908,297.359841 729.640382,295.730282 751.728513,293.998876 Z" id="Shape" fill="#FF0000" transform="translate(650.000000, 371.489782) scale(1, -1) translate(-650.000000, -371.489782) "></path>
            <path d="M464.756687,716.994976 C447.253749,708.637748 411.677128,678.152863 351.177846,620.127114 C338.906765,608.35102 306.75463,577.296324 279.834352,551.179989 C186.707313,460.769984 118.883432,396.856189 89.1094141,371.309664 C52.6766702,340.06503 45.4471963,328.478874 50.1083045,308.63046 C53.0571688,296.189587 59.6207702,287.452485 69.7039839,282.324187 C75.9822113,279.190226 80.8335688,277.765699 98.1462565,273.871991 C114.888196,270.16822 120.88105,267.699039 125.161659,262.950614 C129.442269,258.20219 130.393515,254.688356 131.439887,238.733649 C131.91551,231.421075 132.771632,223.53869 133.34238,221.164478 C140.571854,190.394686 164.828641,155.921124 199.168642,127.81045 C214.959336,114.894735 227.420666,106.632476 247.777343,95.6161308 C277.74161,79.4714871 302.854519,73.5834406 357.360949,69.7847009 C429.845937,64.7513709 441.831644,66.8406776 473.508155,90.6777692 C500.238184,110.716121 519.548489,133.508559 535.339183,163.613571 C544.090651,180.328026 549.037133,192.578962 559.025223,222.114162 C563.781455,236.454405 569.39381,251.364459 571.296304,255.163198 C577.859905,268.173881 584.899129,273.587086 595.172592,273.682054 C611.438909,273.777022 615.33902,264.849985 625.136859,205.779582 C630.083342,175.864506 633.888328,158.960116 638.168937,148.038739 C651.391265,114.514861 693.531488,75.0079679 742.140187,50.696034 C765.731103,38.8249724 810.154318,27.0488794 835.362352,25.814289 C868.751107,24.2947931 902.139862,39.2048464 929.630889,67.9802995 C958.263409,97.8953747 977.098092,133.318622 997.169395,195.048142 C1004.39887,217.365737 1009.25023,227.527366 1015.81383,234.365097 L1020.76031,239.493396 L1028.46541,238.923586 C1038.73887,238.068869 1041.40236,238.828617 1046.06347,243.482074 C1058.61992,255.922946 1073.93499,293.720406 1132.72203,457.636024 C1149.93959,505.310206 1154.41045,517.276237 1159.45206,527.627802 C1164.30342,537.694462 1169.82065,543.582509 1173.34026,542.537856 C1177.3355,541.398234 1180.75998,536.934715 1186.56259,525.633464 C1193.50669,511.958001 1199.30929,505.595112 1208.91688,501.036625 C1215.09999,498.187569 1215.95611,497.997633 1226.80032,497.997633 C1236.59816,497.997633 1238.97627,498.282539 1243.73251,500.181908 C1250.58148,502.935994 1259.80857,511.293222 1263.23306,517.846047 C1265.51605,522.11963 1265.80143,523.639126 1265.7063,531.236605 C1265.61118,538.45421 1265.04043,541.303266 1262.09157,549.755461 C1256.19384,566.564885 1230.31993,616.993153 1204.92165,661.343439 C1183.70885,698.381151 1172.10364,711.106929 1160.68868,710.062276 C1154.6007,709.492465 1147.08585,704.364166 1136.14652,693.44279 C1126.4438,683.661035 1120.35583,675.11387 1119.30946,669.700667 C1118.07283,662.767967 1106.27738,634.84723 1082.87671,582.899465 C1062.23466,537.314588 1047.10984,501.891341 1032.74602,465.613377 C1018.47732,429.430381 1008.29898,408.06247 1002.40125,401.79455 C995.362026,394.19707 993.649782,389.25871 992.318038,372.82916 C991.271666,359.913445 989.939921,357.539232 983.661693,357.159358 C980.046956,356.969422 975.671222,358.393948 957.121913,366.086397 C898.049502,390.303362 871.319473,399.135433 842.972325,403.598951 C831.367117,405.498322 780.760798,405.213416 760.213873,403.124109 C718.168774,398.945495 688.87038,392.677574 671.747941,384.035441 C650.440018,373.304002 627.229602,369.6952 586.325999,370.549916 C545.89802,371.404632 522.211979,376.437962 501.569929,388.59393 C470.844665,406.732912 431.748431,414.045485 374.007763,412.715927 C346.802112,412.051147 335.9579,411.101462 276.980612,404.548636 C254.24582,401.984487 235.506261,399.990149 235.411138,400.085117 C235.030638,400.370023 377.812749,539.593832 397.788928,558.397594 C430.70206,589.54726 449.346492,605.406998 464.281064,615.188753 C479.881507,625.350381 484.732864,626.205098 505.47004,622.8812 C537.812423,617.752901 593.935971,614.618941 608.394919,617.088122 C623.139241,619.652271 631.700461,625.44535 636.837193,636.366726 C647.871653,659.539038 624.566111,678.3428 563.781455,695.437129 C555.410485,697.716373 538.288047,702.559765 525.731592,705.97863 C513.175137,709.492465 497.09907,714.240889 489.964721,716.520133 C482.830372,718.799377 475.981396,720.698748 474.649651,720.698748 C473.41303,720.698748 468.942171,719.084283 464.756687,716.994976 Z M514.576436,682.495675 C523.049709,679.65975 544.661315,670.490259 593.406433,649.031761 C613.399548,640.145862 617.302965,638.255245 612.637905,639.295085 C611.305031,639.578678 599.806071,667.937927 582.764322,670.017605 C545.729456,674.460553 550.246837,682.495675 533.395497,685.804253 C522.922913,687.789401 486.149429,696.789537 482.246011,695.93876 C453.208392,689.416132 359.044329,603.643292 238.133586,473.757929 C178.535062,409.666025 78.388378,390.317008 106.473944,353.937474 C113.397586,344.969207 141.229208,353.937474 130.613422,360.051009 L128.042879,362.036157 L129.85178,365.533798 C135.278482,376.121251 152.98667,394.649293 187.927018,426.506184 C236.672137,470.935674 275.420698,507.235513 350.347277,578.984415 C417.847842,643.548972 432.033433,656.405165 451.264905,670.017605 C469.068298,682.779268 479.064856,686.371439 495.059348,685.804253 C503.723031,685.520662 507.150421,684.953476 514.576436,682.495675 Z M1162.09957,579.925111 C1183.12368,544.772697 1206.01619,544.415334 1208.10909,534.087536 C1209.3458,528.213009 1225.31514,570.078426 1217.32407,569.794174 C1214.37499,569.794174 1210.86791,571.367553 1208.10909,574.020566 C1200.30828,581.4111 1202.38839,558.795761 1195.44377,579.925111 C1190.21153,595.843184 1186.31113,604.086473 1182.12533,607.68699 C1177.08335,612.140261 1173.08781,611.287508 1166.33346,604.275975 C1155.01278,592.526919 1141.40894,564.85979 1098.69479,466.603581 C1054.17314,364.178352 1036.66889,329.31019 1025.82388,321.161651 C1020.59163,317.276883 1041.6091,318.227572 1039.99186,324.575851 C1038.75514,329.502875 1038.0094,334.225586 1047.42744,353.175674 C1063.69497,386.148828 1096.21288,450.223064 1131.31649,527.065673 C1155.67022,580.315422 1168.52149,589.947112 1176.51256,598.285151 L1170.51926,598.285151 L1176.51256,661.410492 C1178.1298,659.610233 1157.34298,587.884147 1162.09957,579.925111 Z M406.175476,339.086477 C435.410817,335.945353 452.508609,318.716764 475.744515,308.246352 C502.313439,296.252971 539.738483,300.143695 584.020025,300.143695 C623.63534,300.143695 646.014183,342.893899 687.724538,352.888385 C710.579528,358.409148 724.959125,360.027303 750.575758,360.027303 C806.380024,360.027303 871.040597,347.843549 914.750763,329.187178 C929.416048,322.90493 939.03419,316.908239 948.461873,308.246352 C961.413033,296.157784 974.459423,291.30332 998.171474,289.494795 C1015.12226,288.257382 1018.07436,287.781454 1016.07455,286.639227 C1015.21749,286.163299 1025.407,316.527497 1016.07455,314.909342 C1001.02835,312.148961 990.523256,314.909342 974.90568,314.909342 C954.526649,314.814156 971.888236,311.197104 959.413221,319.668621 C942.652896,330.900518 903.899963,364.405839 859.427963,374.400324 C821.526774,382.776654 724.768666,374.495509 699.723408,374.400324 C674.011545,374.400324 629.880112,337.468323 620.738117,328.330508 C613.595932,321.19159 623.690219,306.913755 620.738117,288.923681 C618.833534,276.454372 658.965344,197.735905 661.060384,182.982141 C663.917258,163.659471 690.390954,128.060067 696.771305,115.590757 C704.294406,100.741808 725.823148,94.4595605 740.107516,84.36989 C759.153341,70.7583534 806.380024,57.6328199 834.091698,52.3024279 C846.281025,49.9227887 885.490832,65.7135182 895.585118,68.0931574 C922.725417,74.375405 945.890687,112.830376 959.413221,141.10049 C964.460364,151.761274 979.519262,188.064834 985.613926,213.28901 C991.518131,237.751702 980.281095,229.813442 985.613926,243.710535 C991.803819,259.701711 959.698909,257.417258 959.413221,243.710535 C958.651389,208.015947 937.034377,139.101593 916.750576,107.78554 C908.179954,94.4595605 893.41944,80.2769104 882.468092,74.9465185 C873.611784,70.5679822 864.374558,68.6642708 847.709462,68.0931574 C827.901805,67.3316728 811.903313,69.4257553 790.667219,75.5176319 C753.432632,86.2736014 714.293463,109.118138 696.771305,130.344521 C689.533892,139.101593 684.867664,148.620151 678.773001,166.89578 C671.726046,188.026976 666.774132,208.682245 661.060384,241.045339 C653.442054,283.974032 649.53766,296.538526 640.014748,309.293394 C630.777524,321.667518 606.494097,326.236424 584.020025,319.668621 C565.164659,314.243043 522.804766,347.203204 499.170878,328.330508 C470.08634,305.105228 482.69624,256.179844 479.648909,240.664597 C471.268746,198.973317 473.249891,193.547739 445.728675,166.89578 C421.826166,143.765686 352.19095,120.540407 321.81286,115.3052 C310.480594,113.401489 321.21723,105.977015 304.266446,107.309612 L329.663042,102.359963 L354.136927,107.309612 C367.659461,110.069994 382.800891,113.687046 387.752807,115.3052 C417.65475,125.299685 445.271195,144.717542 464.126561,169.275419 C487.076779,199.068502 502.980043,247.327587 499.170878,275.40733 C496.980609,291.874434 491.457319,303.011146 479.648909,314.909342 C451.27063,343.369828 404.894048,355.55358 329.758271,354.030612 C276.525192,352.98357 241.385647,345.749467 204.627205,328.330508 C186.247985,319.668621 183.105425,313.67193 185.010006,290.351465 C188.438255,245.804617 198.81823,217.629689 227.672653,174.225068 C242.337938,152.142017 246.813706,144.431985 246.813706,141.10049 C246.813706,138.149737 246.813706,141.25965 246.813706,145.764583 C246.813706,170.036904 212.22659,222.864895 195.847183,275.40733 C182.419876,318.716764 151.298898,305.390785 144.918546,308.627094 C140.15709,311.101919 175.794509,254.287843 179.764166,272.953221 C160.432654,269.431356 195.180578,302.440032 195.847183,308.246352 C197.08516,319.287878 194.056773,326.617167 204.627205,319.668621 C209.864807,316.24194 210.102327,321.953075 218.958635,328.330508 C243.33729,345.844653 259.860096,334.232013 329.758271,339.086477 C346.23291,340.228704 390.176984,340.895002 406.175476,339.086477 Z M386.587163,326.677736 C425.604523,322.56911 449.966584,315.402901 460.149164,305.08356 C481.465966,283.489385 474.709301,227.975154 445.398697,183.066913 C438.927526,173.12977 423.225417,156.886364 414.946122,151.631144 C386.682327,133.381199 345.000365,129.272573 308.076618,141.025155 C273.34165,152.108891 248.789262,173.989715 230.232224,210.298506 C221.477109,227.401858 213.007487,251.38477 209.962229,267.914824 C208.249273,277.27867 208.439601,294.382022 210.342887,298.586198 C217.28988,314.065209 254.118463,324.288999 317.593048,328.493176 C328.72727,329.257571 373.930312,328.110978 386.587163,326.677736 Z M754.199668,300.026687 C843.593724,293.252319 887.531566,285.237573 908.504056,271.879663 C916.095909,267.108981 917.898974,262.433714 917.804075,248.598736 C917.614279,228.180217 912.299983,194.117548 905.467316,168.928348 C895.313214,131.812442 884.684621,117.59581 862.383557,111.489337 C853.747824,109.103996 825.373278,109.103996 810.284473,111.489337 C798.801797,113.302196 780.67625,118.836187 772.135418,123.129801 C743.950667,137.346433 723.642463,162.344806 714.437343,194.308376 C708.363862,215.585617 706.750594,232.18759 706.750594,276.077864 L706.750594,304.034059 L711.780195,303.461578 C714.437343,303.175337 733.60677,301.648719 754.199668,300.026687 Z" id="Shape" fill="#000000" transform="translate(657.284113, 373.203691) scale(1, -1) translate(-657.284113, -373.203691) "></path>
        </g>
    </g>
</svg>