<?xml version="1.0" encoding="UTF-8"?>
<svg width="339px" height="885px" viewBox="0 0 339 885" version="1.1" xmlns="http://www.w3.org/2000/svg" xmlns:xlink="http://www.w3.org/1999/xlink">
    <title>tree stand</title>
    <g id="Page-1" stroke="none" stroke-width="1" fill="none" fill-rule="evenodd">
        <g id="1907_U1RVRElPIEtBVCA1MDMtMzQ" transform="translate(-47.000000, -1020.000000)">
            <g id="tree-stand" transform="translate(47.000000, 1020.000000)">
                <path d="M119.050648,278 C119.050648,278 29.305409,260.208392 4.25776367,197.411032 C-20.7870954,134.610877 70.7858698,87.5121573 119.050648,121.234337 C170.68669,157.309357 119.050648,278 119.050648,278" id="Fill-185" fill="#216458"></path>
                <path d="M172.367768,442 C171.574149,442 170.878335,441.417672 170.758175,440.612442 C162.137349,382.454833 127.377395,298.775079 99.7404512,238.820331 C69.7673615,173.802949 41.4793149,121.917211 41.1970771,121.401752 C40.7695289,120.613241 41.0601499,119.626905 41.8509745,119.197821 C42.6390046,118.768736 43.6282339,119.061294 44.0585767,119.847019 C44.3408144,120.365264 72.6819552,172.348521 102.699756,237.463422 C130.426121,297.613208 165.303441,381.599451 173.982951,440.138778 C174.111495,441.024809 173.499514,441.849542 172.60809,441.980496 L172.367768,442" id="Fill-186" fill="#1A3B37"></path>
                <path d="M116.371752,272 C115.793433,272 115.229083,271.690047 114.935732,271.142744 C75.7944088,198.273175 12.22957,145.408113 11.5925806,144.883148 C10.8997149,144.313506 10.7991377,143.285915 11.3718694,142.590616 C11.9446011,141.89811 12.9699305,141.800377 13.66559,142.372812 C14.3081671,142.900569 78.3507479,196.15377 117.804978,269.60415 C118.232432,270.39439 117.933494,271.382887 117.140051,271.807327 C116.896989,271.938568 116.631577,272 116.371752,272" id="Fill-187" fill="#1A3B37"></path>
                <path d="M117.374986,277 C116.911748,277 116.454091,276.804816 116.133172,276.4256 C87.6216918,242.890141 58.4181443,222.041665 38.9426013,210.458868 C17.8317712,197.902938 3.2788328,193.221302 3.1365126,193.1739 C2.27980079,192.90343 1.80540011,191.988852 2.07608756,191.132829 C2.34956559,190.279595 3.26208925,189.805576 4.11880105,190.076046 C4.71877838,190.265653 19.0931189,194.883157 40.4997517,207.600812 C60.2152857,219.314661 89.7704478,240.400147 118.614009,274.323186 C119.194452,275.006331 119.110734,276.032443 118.427039,276.61242 C118.120074,276.871736 117.746135,277 117.374986,277" id="Fill-188" fill="#1A3B37"></path>
                <path d="M109.413376,258 C108.751929,258 108.136756,257.572548 107.91083,256.896447 C86.5322075,192.499259 94.3988002,114.236421 94.4777383,113.454156 C94.5730085,112.560139 95.3515017,111.911976 96.2252651,112.009759 C97.0963065,112.104749 97.7278116,112.90657 97.6352634,113.800588 C97.5536033,114.577265 89.7659487,192.144446 110.915923,255.845977 C111.196289,256.698087 110.752603,257.622836 109.925113,257.913392 L109.413376,258" id="Fill-189" fill="#1A3B37"></path>
                <path d="M114.798977,270 C114.014904,270 113.32324,269.438139 113.191627,268.642632 C106.459799,228.057877 111.634682,194.955337 117.156798,174.32779 C123.154957,151.928433 130.651257,139.317147 130.967687,138.791445 C131.42693,138.020971 132.429423,137.770637 133.205096,138.229583 C133.977968,138.68853 134.229991,139.681522 133.770749,140.451996 C133.695142,140.577163 126.151237,153.291364 120.276289,175.292968 C114.857783,195.586736 109.786509,228.163574 116.411928,268.11693 C116.557542,269.001444 115.958286,269.83311 115.067802,269.98053 L114.798977,270" id="Fill-190" fill="#1A3B37"></path>
                <path d="M214.238934,294 C214.238934,294 304.748515,281.606011 333.413221,220.621795 C362.080709,159.634794 273.574291,107.366188 223.475741,138.054606 C169.880002,170.887121 214.238934,294 214.238934,294" id="Fill-191" fill="#216458"></path>
                <path d="M179.627507,437 L179.607967,437 C178.70914,436.988838 177.988963,436.25214 178,435.353591 C178.357426,405.358251 184.900438,371.185496 197.450515,333.789686 C207.474387,303.92271 221.333626,271.932145 238.640227,238.710959 C268.097738,182.166575 297.759021,141.078902 298.054908,140.671486 C298.58248,139.943159 299.601336,139.784099 300.327097,140.308718 C301.055649,140.836127 301.21755,141.854668 300.689977,142.580204 C300.39409,142.987621 270.850046,183.913443 241.504191,240.256909 C214.46123,292.177395 182.053223,368.177311 181.252094,435.392658 C181.240929,436.285626 180.515168,437 179.627507,437" id="Fill-192" fill="#1A3B37"></path>
                <path d="M217.623116,288 C217.333381,288 217.038074,287.92222 216.773413,287.758327 C216.010073,287.291649 215.770484,286.294402 216.241303,285.533272 C259.851984,214.912086 326.75011,165.799763 327.418729,165.310862 C328.143066,164.783071 329.159924,164.944186 329.686462,165.666426 C330.215785,166.388666 330.059774,167.40258 329.332651,167.927593 C328.669603,168.413716 262.272942,217.170475 219.007715,287.230537 C218.698478,287.724993 218.166369,288 217.623116,288" id="Fill-193" fill="#1A3B37"></path>
                <path d="M215.63121,293 C215.225777,293 214.820344,292.849671 214.501589,292.549012 C213.852896,291.928207 213.830528,290.900956 214.45126,290.255097 C245.311711,258.148637 276.127425,238.881421 296.541682,228.3695 C318.709088,216.955602 333.360603,213.205719 333.97015,213.049822 C334.839734,212.829895 335.728891,213.358832 335.949782,214.227402 C336.170674,215.095972 335.642212,215.978461 334.769832,216.198387 C334.621639,216.234577 319.788379,220.042922 297.928543,231.30649 C277.760342,241.704273 247.316508,260.757131 216.805568,292.496118 C216.486814,292.830183 216.059012,293 215.63121,293" id="Fill-194" fill="#1A3B37"></path>
                <path d="M224.654474,275 L224.029238,274.879816 C223.182329,274.538829 222.778767,273.588538 223.122647,272.755635 C248.998872,210.422103 245.554392,132.489815 245.517447,131.707222 C245.474817,130.810035 246.179628,130.047006 247.091903,130.002287 C247.992811,129.954772 248.782881,130.653516 248.825511,131.553498 C248.865299,132.338886 252.349566,210.975508 226.189143,273.988219 C225.927681,274.619883 225.308129,275 224.654474,275" id="Fill-195" fill="#1A3B37"></path>
                <path d="M218.515421,287 L218.153548,286.961003 C217.272711,286.760445 216.722889,285.891363 216.919254,285.016709 C225.929601,245.467887 222.807398,212.601528 218.599577,191.994246 C214.035494,169.65437 207.252487,156.501142 207.185162,156.370222 C206.767185,155.573563 207.081369,154.595846 207.880855,154.180803 C208.683146,153.771332 209.667776,154.080524 210.085753,154.874398 C210.36908,155.417574 217.112814,168.467739 221.775079,191.2143 C226.067057,212.15863 229.262195,245.557023 220.108782,285.735374 C219.937664,286.487464 219.264413,287 218.515421,287" id="Fill-196" fill="#1A3B37"></path>
                <path d="M179.135937,176 C179.135937,176 102.078322,126.292973 102,58.8654725 C101.918979,-8.56202773 204.714649,-18.2761119 237.209397,30.8208251 C271.971285,83.3498676 179.135937,176 179.135937,176" id="Fill-197" fill="#216458"></path>
                <path d="M168.342534,348 L167.971793,347.955442 C167.109478,347.74936 166.579457,346.874904 166.782677,346.003232 C180.137573,288.823824 178.945711,198.303686 175.598062,132.438199 C171.964805,61.011282 165.080017,2.40043933 165.011362,1.81561195 C164.907005,0.924446427 165.533145,0.11682767 166.411937,0.0110017635 C167.279744,-0.0920392504 168.084388,0.540131294 168.188745,1.42851193 C168.257401,2.0133393 175.158666,60.7355777 178.794669,132.271105 C182.153303,198.348244 183.339673,289.197 169.899644,346.749583 C169.723885,347.498719 169.067537,348 168.342534,348" id="Fill-198" fill="#1A3B37"></path>
                <path d="M179.358366,169 C178.537418,169 177.828929,168.389952 177.733339,167.559841 C168.309303,85.5849861 128.602963,13.1257661 128.200923,12.4070794 C127.767957,11.6187525 128.057538,10.6326475 128.850372,10.2008783 C129.643205,9.76910918 130.641276,10.0560267 131.074242,10.8443536 C131.479093,11.5713972 171.491883,84.5626682 180.989017,167.192141 C181.093041,168.083535 180.446404,168.888576 179.546735,168.988858 L179.358366,169" id="Fill-199" fill="#1A3B37"></path>
                <path d="M178.37115,174 C177.68917,174 177.054705,173.571054 176.825515,172.89421 C162.747098,131.236289 143.316256,101.098638 129.494979,83.1497452 C114.516573,63.696755 102.713286,53.9758307 102.595896,53.8783429 C101.899941,53.3101284 101.799321,52.2878994 102.369501,51.5943435 C102.939681,50.9007876 103.962651,50.8005144 104.658606,51.3659435 C105.147731,51.7642507 116.808473,61.3598337 132.00489,81.0746481 C145.999456,99.2324435 165.673463,129.72105 179.91399,171.858054 C180.201875,172.707591 179.743495,173.629546 178.89102,173.913654 L178.37115,174" id="Fill-200" fill="#1A3B37"></path>
                <path d="M178.616501,154 L178.533424,154 C177.64173,153.952481 176.957729,153.186587 177.002037,152.289317 C180.435888,84.3120397 216.593792,14.5653795 216.959331,13.8665712 C217.377486,13.0727249 218.355026,12.7680445 219.141489,13.1901247 C219.927951,13.6094097 220.229798,14.596127 219.811644,15.3899733 C219.451643,16.0803959 183.623278,85.2093096 180.228196,152.454236 C180.183888,153.326349 179.472194,154 178.616501,154" id="Fill-201" fill="#1A3B37"></path>
                <path d="M178.613643,168 L178.267676,167.960801 C177.395839,167.767609 176.845059,166.89684 177.038801,166.017673 C185.812529,125.578757 202.811974,96.3114304 215.526961,78.8764701 C229.335204,59.9491646 240.909883,50.7291029 241.397005,50.345517 C242.097243,49.7911373 243.110235,49.9171327 243.658247,50.6283066 C244.206259,51.3366806 244.081711,52.3642429 243.381473,52.9186225 C243.26246,53.0110192 231.599214,62.3150778 218.045602,80.923195 C205.543731,98.0865653 188.829363,126.900308 180.188486,166.717647 C180.022422,167.479219 179.355397,168 178.613643,168" id="Fill-202" fill="#1A3B37"></path>
                <path d="M259,332 L253.42811,379.352561 L252.869804,384.140991 L238.459937,506.724798 C191.900041,512.607329 148.447115,512.239845 107.540063,506.724798 L87,332 L259,332" id="Fill-203" fill="#3A3852"></path>
                <polyline id="Fill-204" fill="#2E2D41" points="255 361 254.443016 366 91.5569843 366 91 361 255 361"></polyline>
                <polyline id="Fill-205" fill="#2E2D41" points="253.012121 379 252.456703 384 93.5460738 384 92.9878788 379 253.012121 379"></polyline>
                <polyline id="Fill-206" fill="#2E2D41" points="251.024242 398 250.465298 403 96.5258745 403 95.969697 398 251.024242 398"></polyline>
                <polyline id="Fill-207" fill="#2E1D23" points="249.335213 449 96.6592191 449 95 437 251 437 249.335213 449"></polyline>
                <polyline id="Fill-208" fill="#2E1D23" points="266.955043 660 79.0421674 660 77 648 269 648 266.955043 660"></polyline>
                <polyline id="Fill-209" fill="#2E1D23" points="106.385025 449 36 885 45.6601445 885 118 449 106.385025 449"></polyline>
                <polyline id="Fill-210" fill="#2E1D23" points="239.617362 449 310 885 300.337403 885 228 449 239.617362 449"></polyline>
            </g>
        </g>
    </g>
</svg>