<?xml version="1.0" encoding="UTF-8"?>
<svg width="2122px" height="2122px" viewBox="0 0 2122 2122" version="1.1" xmlns="http://www.w3.org/2000/svg" xmlns:xlink="http://www.w3.org/1999/xlink">
    <title>1907_U1RVRElPIEtBVCA1MDMtMzQ</title>
    <g id="1907_U1RVRElPIEtBVCA1MDMtMzQ" stroke="none" stroke-width="1" fill="none" fill-rule="evenodd">
        <path d="M260.560135,1900.335 C260.560135,1936.23509 648.58087,1965.335 1127.22366,1965.335 C1605.87116,1965.335 1993.88718,1936.23509 1993.88718,1900.335 C1993.88718,1864.43491 1605.87116,1835.335 1127.22366,1835.335 C648.58087,1835.335 260.560135,1864.43491 260.560135,1900.335" id="Fill-60" fill-opacity="0.2" fill="#4756DF"></path>
        <path d="M5.560135,77.335 C5.560135,307.095603 191.810763,493.335 421.560135,493.335 C651.311769,493.335 837.560135,307.095603 837.560135,77.335 C837.560135,-152.425603 651.311769,-338.665 421.560135,-338.665 C191.810763,-338.665 5.560135,-152.425603 5.560135,77.335" id="Fill-60" fill-opacity="0.15" fill="#4756DF"></path>
        <g id="tree-stand" transform="translate(47.000000, 1020.000000)">
            <path d="M119.050648,278 C119.050648,278 29.305409,260.208392 4.25776367,197.411032 C-20.7870954,134.610877 70.7858698,87.5121573 119.050648,121.234337 C170.68669,157.309357 119.050648,278 119.050648,278" id="Fill-185" fill="#216458"></path>
            <path d="M172.367768,442 C171.574149,442 170.878335,441.417672 170.758175,440.612442 C162.137349,382.454833 127.377395,298.775079 99.7404512,238.820331 C69.7673615,173.802949 41.4793149,121.917211 41.1970771,121.401752 C40.7695289,120.613241 41.0601499,119.626905 41.8509745,119.197821 C42.6390046,118.768736 43.6282339,119.061294 44.0585767,119.847019 C44.3408144,120.365264 72.6819552,172.348521 102.699756,237.463422 C130.426121,297.613208 165.303441,381.599451 173.982951,440.138778 C174.111495,441.024809 173.499514,441.849542 172.60809,441.980496 L172.367768,442" id="Fill-186" fill="#1A3B37"></path>
            <path d="M116.371752,272 C115.793433,272 115.229083,271.690047 114.935732,271.142744 C75.7944088,198.273175 12.22957,145.408113 11.5925806,144.883148 C10.8997149,144.313506 10.7991377,143.285915 11.3718694,142.590616 C11.9446011,141.89811 12.9699305,141.800377 13.66559,142.372812 C14.3081671,142.900569 78.3507479,196.15377 117.804978,269.60415 C118.232432,270.39439 117.933494,271.382887 117.140051,271.807327 C116.896989,271.938568 116.631577,272 116.371752,272" id="Fill-187" fill="#1A3B37"></path>
            <path d="M117.374986,277 C116.911748,277 116.454091,276.804816 116.133172,276.4256 C87.6216918,242.890141 58.4181443,222.041665 38.9426013,210.458868 C17.8317712,197.902938 3.2788328,193.221302 3.1365126,193.1739 C2.27980079,192.90343 1.80540011,191.988852 2.07608756,191.132829 C2.34956559,190.279595 3.26208925,189.805576 4.11880105,190.076046 C4.71877838,190.265653 19.0931189,194.883157 40.4997517,207.600812 C60.2152857,219.314661 89.7704478,240.400147 118.614009,274.323186 C119.194452,275.006331 119.110734,276.032443 118.427039,276.61242 C118.120074,276.871736 117.746135,277 117.374986,277" id="Fill-188" fill="#1A3B37"></path>
            <path d="M109.413376,258 C108.751929,258 108.136756,257.572548 107.91083,256.896447 C86.5322075,192.499259 94.3988002,114.236421 94.4777383,113.454156 C94.5730085,112.560139 95.3515017,111.911976 96.2252651,112.009759 C97.0963065,112.104749 97.7278116,112.90657 97.6352634,113.800588 C97.5536033,114.577265 89.7659487,192.144446 110.915923,255.845977 C111.196289,256.698087 110.752603,257.622836 109.925113,257.913392 L109.413376,258" id="Fill-189" fill="#1A3B37"></path>
            <path d="M114.798977,270 C114.014904,270 113.32324,269.438139 113.191627,268.642632 C106.459799,228.057877 111.634682,194.955337 117.156798,174.32779 C123.154957,151.928433 130.651257,139.317147 130.967687,138.791445 C131.42693,138.020971 132.429423,137.770637 133.205096,138.229583 C133.977968,138.68853 134.229991,139.681522 133.770749,140.451996 C133.695142,140.577163 126.151237,153.291364 120.276289,175.292968 C114.857783,195.586736 109.786509,228.163574 116.411928,268.11693 C116.557542,269.001444 115.958286,269.83311 115.067802,269.98053 L114.798977,270" id="Fill-190" fill="#1A3B37"></path>
            <path d="M214.238934,294 C214.238934,294 304.748515,281.606011 333.413221,220.621795 C362.080709,159.634794 273.574291,107.366188 223.475741,138.054606 C169.880002,170.887121 214.238934,294 214.238934,294" id="Fill-191" fill="#216458"></path>
            <path d="M179.627507,437 L179.607967,437 C178.70914,436.988838 177.988963,436.25214 178,435.353591 C178.357426,405.358251 184.900438,371.185496 197.450515,333.789686 C207.474387,303.92271 221.333626,271.932145 238.640227,238.710959 C268.097738,182.166575 297.759021,141.078902 298.054908,140.671486 C298.58248,139.943159 299.601336,139.784099 300.327097,140.308718 C301.055649,140.836127 301.21755,141.854668 300.689977,142.580204 C300.39409,142.987621 270.850046,183.913443 241.504191,240.256909 C214.46123,292.177395 182.053223,368.177311 181.252094,435.392658 C181.240929,436.285626 180.515168,437 179.627507,437" id="Fill-192" fill="#1A3B37"></path>
            <path d="M217.623116,288 C217.333381,288 217.038074,287.92222 216.773413,287.758327 C216.010073,287.291649 215.770484,286.294402 216.241303,285.533272 C259.851984,214.912086 326.75011,165.799763 327.418729,165.310862 C328.143066,164.783071 329.159924,164.944186 329.686462,165.666426 C330.215785,166.388666 330.059774,167.40258 329.332651,167.927593 C328.669603,168.413716 262.272942,217.170475 219.007715,287.230537 C218.698478,287.724993 218.166369,288 217.623116,288" id="Fill-193" fill="#1A3B37"></path>
            <path d="M215.63121,293 C215.225777,293 214.820344,292.849671 214.501589,292.549012 C213.852896,291.928207 213.830528,290.900956 214.45126,290.255097 C245.311711,258.148637 276.127425,238.881421 296.541682,228.3695 C318.709088,216.955602 333.360603,213.205719 333.97015,213.049822 C334.839734,212.829895 335.728891,213.358832 335.949782,214.227402 C336.170674,215.095972 335.642212,215.978461 334.769832,216.198387 C334.621639,216.234577 319.788379,220.042922 297.928543,231.30649 C277.760342,241.704273 247.316508,260.757131 216.805568,292.496118 C216.486814,292.830183 216.059012,293 215.63121,293" id="Fill-194" fill="#1A3B37"></path>
            <path d="M224.654474,275 L224.029238,274.879816 C223.182329,274.538829 222.778767,273.588538 223.122647,272.755635 C248.998872,210.422103 245.554392,132.489815 245.517447,131.707222 C245.474817,130.810035 246.179628,130.047006 247.091903,130.002287 C247.992811,129.954772 248.782881,130.653516 248.825511,131.553498 C248.865299,132.338886 252.349566,210.975508 226.189143,273.988219 C225.927681,274.619883 225.308129,275 224.654474,275" id="Fill-195" fill="#1A3B37"></path>
            <path d="M218.515421,287 L218.153548,286.961003 C217.272711,286.760445 216.722889,285.891363 216.919254,285.016709 C225.929601,245.467887 222.807398,212.601528 218.599577,191.994246 C214.035494,169.65437 207.252487,156.501142 207.185162,156.370222 C206.767185,155.573563 207.081369,154.595846 207.880855,154.180803 C208.683146,153.771332 209.667776,154.080524 210.085753,154.874398 C210.36908,155.417574 217.112814,168.467739 221.775079,191.2143 C226.067057,212.15863 229.262195,245.557023 220.108782,285.735374 C219.937664,286.487464 219.264413,287 218.515421,287" id="Fill-196" fill="#1A3B37"></path>
            <path d="M179.135937,176 C179.135937,176 102.078322,126.292973 102,58.8654725 C101.918979,-8.56202773 204.714649,-18.2761119 237.209397,30.8208251 C271.971285,83.3498676 179.135937,176 179.135937,176" id="Fill-197" fill="#216458"></path>
            <path d="M168.342534,348 L167.971793,347.955442 C167.109478,347.74936 166.579457,346.874904 166.782677,346.003232 C180.137573,288.823824 178.945711,198.303686 175.598062,132.438199 C171.964805,61.011282 165.080017,2.40043933 165.011362,1.81561195 C164.907005,0.924446427 165.533145,0.11682767 166.411937,0.0110017635 C167.279744,-0.0920392504 168.084388,0.540131294 168.188745,1.42851193 C168.257401,2.0133393 175.158666,60.7355777 178.794669,132.271105 C182.153303,198.348244 183.339673,289.197 169.899644,346.749583 C169.723885,347.498719 169.067537,348 168.342534,348" id="Fill-198" fill="#1A3B37"></path>
            <path d="M179.358366,169 C178.537418,169 177.828929,168.389952 177.733339,167.559841 C168.309303,85.5849861 128.602963,13.1257661 128.200923,12.4070794 C127.767957,11.6187525 128.057538,10.6326475 128.850372,10.2008783 C129.643205,9.76910918 130.641276,10.0560267 131.074242,10.8443536 C131.479093,11.5713972 171.491883,84.5626682 180.989017,167.192141 C181.093041,168.083535 180.446404,168.888576 179.546735,168.988858 L179.358366,169" id="Fill-199" fill="#1A3B37"></path>
            <path d="M178.37115,174 C177.68917,174 177.054705,173.571054 176.825515,172.89421 C162.747098,131.236289 143.316256,101.098638 129.494979,83.1497452 C114.516573,63.696755 102.713286,53.9758307 102.595896,53.8783429 C101.899941,53.3101284 101.799321,52.2878994 102.369501,51.5943435 C102.939681,50.9007876 103.962651,50.8005144 104.658606,51.3659435 C105.147731,51.7642507 116.808473,61.3598337 132.00489,81.0746481 C145.999456,99.2324435 165.673463,129.72105 179.91399,171.858054 C180.201875,172.707591 179.743495,173.629546 178.89102,173.913654 L178.37115,174" id="Fill-200" fill="#1A3B37"></path>
            <path d="M178.616501,154 L178.533424,154 C177.64173,153.952481 176.957729,153.186587 177.002037,152.289317 C180.435888,84.3120397 216.593792,14.5653795 216.959331,13.8665712 C217.377486,13.0727249 218.355026,12.7680445 219.141489,13.1901247 C219.927951,13.6094097 220.229798,14.596127 219.811644,15.3899733 C219.451643,16.0803959 183.623278,85.2093096 180.228196,152.454236 C180.183888,153.326349 179.472194,154 178.616501,154" id="Fill-201" fill="#1A3B37"></path>
            <path d="M178.613643,168 L178.267676,167.960801 C177.395839,167.767609 176.845059,166.89684 177.038801,166.017673 C185.812529,125.578757 202.811974,96.3114304 215.526961,78.8764701 C229.335204,59.9491646 240.909883,50.7291029 241.397005,50.345517 C242.097243,49.7911373 243.110235,49.9171327 243.658247,50.6283066 C244.206259,51.3366806 244.081711,52.3642429 243.381473,52.9186225 C243.26246,53.0110192 231.599214,62.3150778 218.045602,80.923195 C205.543731,98.0865653 188.829363,126.900308 180.188486,166.717647 C180.022422,167.479219 179.355397,168 178.613643,168" id="Fill-202" fill="#1A3B37"></path>
            <path d="M259,332 L253.42811,379.352561 L252.869804,384.140991 L238.459937,506.724798 C191.900041,512.607329 148.447115,512.239845 107.540063,506.724798 L87,332 L259,332" id="Fill-203" fill="#3A3852"></path>
            <polyline id="Fill-204" fill="#2E2D41" points="255 361 254.443016 366 91.5569843 366 91 361 255 361"></polyline>
            <polyline id="Fill-205" fill="#2E2D41" points="253.012121 379 252.456703 384 93.5460738 384 92.9878788 379 253.012121 379"></polyline>
            <polyline id="Fill-206" fill="#2E2D41" points="251.024242 398 250.465298 403 96.5258745 403 95.969697 398 251.024242 398"></polyline>
            <polyline id="Fill-207" fill="#2E1D23" points="249.335213 449 96.6592191 449 95 437 251 437 249.335213 449"></polyline>
            <polyline id="Fill-208" fill="#2E1D23" points="266.955043 660 79.0421674 660 77 648 269 648 266.955043 660"></polyline>
            <polyline id="Fill-209" fill="#2E1D23" points="106.385025 449 36 885 45.6601445 885 118 449 106.385025 449"></polyline>
            <polyline id="Fill-210" fill="#2E1D23" points="239.617362 449 310 885 300.337403 885 228 449 239.617362 449"></polyline>
        </g>
        <g id="man" transform="translate(1028.500000, 1274.000000) scale(-1, 1) translate(-1028.500000, -1274.000000) translate(340.000000, 643.000000)">
            <path d="M1095.76114,792.421018 C1106.75873,768.802931 1086.87404,690.12822 1093.01587,664.192046 C1113.5436,577.466727 1150.32863,494.727528 1144.35168,402.392604 C1140.88917,348.97019 1107.78924,320.811623 1061.48231,315.409903 C1014.53234,309.930639 936.353841,308.63713 892.759208,330.397448 C813.616155,369.894017 842.857864,465.976652 865.858814,531.077768 C874.74592,556.255821 884.985052,582.093827 891.06093,608.104245 C896.872998,633.04224 903.830992,668.770474 893.979331,693.848708 C889.288456,705.785618 872.462313,728.149793 863.90497,752.543326 C863.90497,752.543326 907.450138,769.017416 893.979331,808.061917 C893.979331,808.061917 1083.41977,823.777061 1095.76114,792.421018" id="Fill-1" fill="#2F417F"></path>
            <path d="M716.548396,832 L913.024064,832 C932.33507,832 948,814.095821 948,792.005176 C948,769.91453 932.33507,752.002078 913.024064,752.002078 L716.548396,752.002078 C716.548396,752.002078 670.378511,750.926504 673.117193,797.713994 C673.117193,797.713994 674.915484,832 716.548396,832" id="Fill-2" fill="#2F417F"></path>
            <polygon id="Fill-3" fill="#0F1222" points="740 847 1067 847 1067 832 740 832"></polygon>
            <polygon id="Fill-4" fill="#2C334F" points="740 847 831 847 831 832 740 832"></polygon>
            <polyline id="Fill-5" fill="#2C334F" points="739.856008 847 711 1262 723.424457 1262 769 847 739.856008 847"></polyline>
            <polyline id="Fill-6" fill="#2C334F" points="801 847 822.634875 1262 835 1262 829.996628 847 801 847"></polyline>
            <polyline id="Fill-7" fill="#0F1222" points="1037 847 1058.63487 1262 1071 1262 1066.00482 847 1037 847"></polyline>
            <polyline id="Fill-8" fill="#0F1222" points="983 847 961.365125 1262 949 1262 954.003372 847 983 847"></polyline>
            <path d="M1092,792.004137 C1092,814.095356 1076.33229,832 1057.01978,832 L910.980224,832 C891.66771,832 876,814.095356 876,792.004137 C876,769.912918 891.66771,752 910.980224,752 L1057.01978,752 C1076.33229,752 1092,769.912918 1092,792.004137" id="Fill-9" fill="#2F417F"></path>
            <path d="M827.872012,564 L981.717905,564 L1046,275.991607 L929.263121,233 L874.627883,233 L816.680667,264.164659 C816.680667,264.164659 802.169085,297.298133 806.975995,331.934256 L827.872012,564" id="Fill-10" fill="#F0AA93"></path>
            <path d="M832.965691,352.920069 C843.103879,291.218597 812.052058,288.01412 812.052058,288.01412 C777.110483,279.07662 760.864554,332.153768 760.864554,332.153768 C760.864554,332.153768 735.672191,449.557614 736.003234,502.184417 C736.003234,502.184417 773.046932,525.147082 790.542547,492.352836 L832.965691,352.920069" id="Fill-11" fill="#F0AA93"></path>
            <path d="M821.890201,454 L840.863334,350.49471 C840.863334,350.49471 874.004503,284.757127 825.945276,253 C825.945276,253 768.564322,266.707228 758.97061,315.617164 L733,418.93759 C733,418.93759 735.604479,444.670931 821.890201,454" id="Fill-12" fill="#F8D4BE"></path>
            <path d="M477,1149.91536 L452.59246,1193.02337 L460.345191,1228.99776 C460.345191,1228.99776 399.367153,1256.15854 350.974214,1250.12557 C308.542377,1244.84568 322.041018,1230.68599 322.041018,1230.68599 L342.281558,1223.26271 C342.281558,1223.26271 383.83778,1212.04916 394.309697,1203.52521 C402.934745,1196.49916 428.763715,1134.91983 431.238026,1127 L477,1149.91536" id="Fill-13" fill="#F0AA93"></path>
            <path d="M427.325807,1203.95889 C423.938802,1203.99176 417.735349,1202.56166 415.731385,1199.36447 C414.04614,1196.64398 412.071075,1189.4688 408.884714,1189.1236 C406.145055,1188.85237 403.438424,1189.09072 400.718581,1189.23866 C397.927729,1194.77827 394.781002,1199.70967 391.507118,1202.35618 C381.022431,1210.81353 341.594624,1222.5667 341.594624,1222.5667 L317.067326,1230.07886 C317.067326,1230.07886 308.18449,1243.23748 341.670588,1251.66195 C383.179148,1262.10008 463,1234.2048 463,1234.2048 L452.685406,1195.37004 C445.107169,1200.43294 436.410114,1203.86848 427.325807,1203.95889" id="Fill-14" fill="#23282E"></path>
            <path d="M427.325807,1203.95889 C423.938802,1203.99176 417.735349,1202.56166 415.731385,1199.36447 C414.04614,1196.64398 412.071075,1189.4688 408.884714,1189.1236 C406.145055,1188.85237 403.438424,1189.09072 400.718581,1189.23866 C397.927729,1194.77827 394.781002,1199.70967 391.507118,1202.35618 C381.022431,1210.81353 341.594624,1222.5667 341.594624,1222.5667 L317.067326,1230.07886 C317.067326,1230.07886 308.18449,1243.23748 341.670588,1251.66195 C383.179148,1262.10008 463,1234.2048 463,1234.2048 L452.685406,1195.37004 C445.107169,1200.43294 436.410114,1203.86848 427.325807,1203.95889" id="Fill-15" fill="#23282E"></path>
            <path d="M463.282604,1234.18123 C463.282604,1234.18123 383.310368,1262.45035 341.723084,1251.87234 C308.173477,1243.33496 317.073161,1230 317.073161,1230 C317.073161,1230 301.382484,1252.21383 340.909886,1260.00159 C340.909886,1260.00159 391.032858,1270.89611 465,1241.81073 C465,1241.81073 464.790703,1237.81274 463.282604,1234.18123" id="Fill-16" fill="#F6CCB5"></path>
            <path d="M405.77005,1221.83189 C406.735719,1221.41123 407.23316,1220.27545 406.893147,1219.24064 C401.422105,1202.74242 390.557111,1202.0273 390.09781,1202.00206 C388.995,1201.95158 388.050429,1202.83496 388.002552,1203.98757 C387.947371,1205.13176 388.793751,1206.10768 389.90143,1206.15816 C390.311231,1206.20023 398.578656,1206.96583 403.08971,1220.59515 C403.453256,1221.68887 404.592583,1222.25255 405.641023,1221.89078 L405.77005,1221.83189" id="Fill-17" fill="#FFFFFE"></path>
            <path d="M392.784199,1225.83819 C393.685635,1225.45773 394.191976,1224.45697 393.931852,1223.47275 C390.30566,1209.35454 380.824227,1207.13797 380.421772,1207.04699 C379.337922,1206.80714 378.277795,1207.51015 378.046301,1208.59362 C377.811535,1209.6771 378.492929,1210.7523 379.560418,1210.99215 C379.887618,1211.06659 387.093376,1212.91924 390.065987,1224.49005 C390.344924,1225.56525 391.43859,1226.21037 392.505261,1225.93744 L392.784199,1225.83819" id="Fill-18" fill="#FFFFFE"></path>
            <path d="M383.701159,1230.82667 C384.657039,1230.43805 385.20255,1229.40982 384.929794,1228.38968 C381.107922,1213.97823 372.098752,1211.20119 371.717224,1211.08784 C370.597361,1210.75589 369.413223,1211.3955 369.08773,1212.4885 C368.758116,1213.5896 369.385206,1214.73928 370.500949,1215.07123 C370.823146,1215.17648 377.671698,1217.49203 380.839287,1229.4422 C381.131819,1230.5514 382.280523,1231.22339 383.413571,1230.93192 L383.701159,1230.82667" id="Fill-19" fill="#FFFFFE"></path>
            <path d="M373.731651,1232.8356 C374.662703,1232.44577 375.203127,1231.41727 374.928363,1230.40535 C371.114773,1215.69117 361.594868,1215.02762 361.18686,1215.00274 C360.038149,1214.94468 359.063234,1215.81559 359.001991,1216.9685 C358.953163,1218.09654 359.808075,1219.06697 360.93858,1219.14162 C361.276241,1219.1748 367.921057,1219.87982 370.920287,1231.45044 C371.211603,1232.55359 372.340452,1233.21714 373.448611,1232.93513 L373.731651,1232.8356" id="Fill-20" fill="#FFFFFE"></path>
            <path d="M360.813277,1235.86141 C361.689732,1235.50665 362.181836,1234.59556 361.937481,1233.69254 C358.366331,1220.60681 349.421064,1220.0263 349.04435,1220.00211 C347.965963,1219.95373 347.060661,1220.74388 347.002117,1221.75171 C346.952907,1222.77567 347.767424,1223.62225 348.821206,1223.68675 C349.130893,1223.71094 355.365344,1224.33177 358.193247,1234.62782 C358.452874,1235.61146 359.507504,1236.19198 360.540923,1235.94203 L360.813277,1235.86141" id="Fill-21" fill="#FFFFFE"></path>
            <path d="M707.172899,1133.45883 C706.24664,1141.70397 703.004733,1165.89357 695.859306,1174.43643 C687.167357,1184.79867 650.662827,1203.96014 650.662827,1203.96014 L632.160802,1215.11631 C632.160802,1215.11631 621.571676,1231.59831 664.358228,1228.64594 C713.160502,1225.28007 768,1186.94886 768,1186.94886 L742.279771,1127 L707.172899,1133.45883" id="Fill-22" fill="#F0AA93"></path>
            <path d="M731.310922,1168.34871 C727.994236,1169.02731 721.657142,1168.80387 719.089385,1166.03151 C716.916667,1163.66466 713.608211,1156.94479 710.414974,1157.22616 C707.690847,1157.47443 705.08194,1158.22752 702.448342,1158.88958 C700.785884,1164.90601 698.654316,1170.38453 695.963109,1173.62033 C687.313388,1183.98978 650.986206,1203.16458 650.986206,1203.16458 L628.431091,1215.28848 C628.431091,1215.28848 622.256952,1229.9944 656.64021,1231.90609 C699.246876,1234.26467 772,1191.41309 772,1191.41309 L754.470118,1155 C748.026035,1161.45505 740.174623,1166.5115 731.310922,1168.34871" id="Fill-23" fill="#23282E"></path>
            <path d="M731.310922,1168.34871 C727.994236,1169.02731 721.657142,1168.80387 719.089385,1166.03151 C716.916667,1163.66466 713.608211,1156.94479 710.414974,1157.22616 C707.690847,1157.47443 705.08194,1158.22752 702.448342,1158.88958 C700.785884,1164.90601 698.654316,1170.38453 695.963109,1173.62033 C687.313388,1183.98978 650.986206,1203.16458 650.986206,1203.16458 L628.431091,1215.28848 C628.431091,1215.28848 622.256952,1229.9944 656.64021,1231.90609 C699.246876,1234.26467 772,1191.41309 772,1191.41309 L754.470118,1155 C748.026035,1161.45505 740.174623,1166.5115 731.310922,1168.34871" id="Fill-24" fill="#23282E"></path>
            <path d="M772.870099,1192 C772.870099,1192 699.673466,1234.34658 656.807066,1232.0158 C622.214205,1230.12664 628.425983,1215.59403 628.425983,1215.59403 C628.425983,1215.59403 617.235344,1239.96498 657.552281,1239.99769 C657.552281,1239.99769 708.856165,1241.03632 776,1199.02505 C776,1199.02505 775.031221,1195.20584 772.870099,1192" id="Fill-25" fill="#F6CCB5"></path>
            <path d="M713.0973,1189.66013 C713.9799,1189.07474 714.268601,1187.928 713.724194,1187.02183 C705.178646,1172.61943 694.20801,1173.99873 693.746088,1174.06288 C692.632528,1174.22326 691.857159,1175.23368 692.022131,1176.32428 C692.187103,1177.39885 693.20993,1178.15265 694.331739,1178.00029 C694.744169,1177.95217 703.132993,1177.11016 710.193794,1189.00256 C710.754698,1189.95684 712.000237,1190.27761 712.973571,1189.74033 L713.0973,1189.66013" id="Fill-26" fill="#FFFFFE"></path>
            <path d="M701.10107,1196.66161 C701.927999,1196.12908 702.245406,1195.0721 701.794354,1194.18455 C695.43786,1181.34744 685.50636,1181.00856 685.080366,1181.00049 C683.944383,1180.97629 683.025573,1181.84769 683.000514,1182.92888 C682.975456,1184.01007 683.869207,1184.91375 684.971779,1184.93796 C685.322598,1184.9541 692.898603,1185.35753 698.119114,1195.88703 C698.603578,1196.86332 699.823089,1197.27482 700.842133,1196.80684 L701.10107,1196.66161" id="Fill-27" fill="#FFFFFE"></path>
            <path d="M693.044717,1203.6275 C693.916128,1203.05276 694.256393,1201.90328 693.791641,1200.93705 C687.193816,1187.10994 677.732783,1186.05208 677.334424,1186.01044 C676.155945,1185.89382 675.118551,1186.76843 675.010662,1187.93457 C674.894474,1189.10904 675.740987,1190.14191 676.911167,1190.26685 C677.251433,1190.31683 684.471694,1191.32471 689.949134,1202.78622 C690.447083,1203.8524 691.725152,1204.3022 692.779144,1203.78577 L693.044717,1203.6275" id="Fill-28" fill="#FFFFFE"></path>
            <path d="M683.100588,1207.665 C683.917352,1207.11127 684.24891,1206.03592 683.79605,1205.1291 C677.391325,1191.85572 668.131968,1192.99528 667.743803,1193.04343 C666.635915,1193.20393 665.859584,1194.21508 666.02132,1195.3145 C666.174969,1196.40591 667.185815,1197.16026 668.27753,1197.02383 C668.609088,1196.99173 675.118941,1196.43801 680.148915,1206.8625 C680.626035,1207.8576 681.839051,1208.28293 682.849898,1207.80143 L683.100588,1207.665" id="Fill-29" fill="#FFFFFE"></path>
            <path d="M672.158334,1212.68718 C672.934879,1212.17104 673.227127,1211.16334 672.80963,1210.31129 C666.772615,1197.9157 658.021867,1198.98895 657.646119,1199.0463 C656.594025,1199.19376 655.87593,1200.14412 656.017879,1201.16002 C656.176528,1202.18411 657.128422,1202.88868 658.163816,1202.7576 C658.464414,1202.72483 664.609978,1202.1923 669.3778,1211.94165 C669.828697,1212.86742 670.964291,1213.26067 671.907835,1212.81827 L672.158334,1212.68718" id="Fill-30" fill="#FFFFFE"></path>
            <path d="M833.811803,113.92372 C846.577119,145.048142 870.040595,95.3164414 872.519537,82.4202173 C874.899651,70.0288837 875.525563,57.0126447 865.650973,48.183685 C860.841331,43.8639755 848.50427,39.8182311 842.475747,43.3433591 C837.468448,46.2526863 835.113042,53.5570427 833.342369,58.7060966 C827.766808,75.0239875 827.182074,97.8036472 833.811803,113.92372" id="Fill-31" fill="#815B4B"></path>
            <path d="M946.449303,167.440581 C947.932751,164.986869 952.291935,158.555658 953.311287,156.968447 C970.308788,130.32933 989.833953,57.4354085 957.968818,39.3097387 C919.772094,17.5706312 909.968075,84.2293754 904.564676,102.27762 C898.307673,123.136225 892.779963,145.812669 898.208224,167.286555 C900.255217,175.388167 906.537082,188.235763 915.470922,188.956474 C925.357816,189.766965 939.363557,179.134216 946.449303,167.440581" id="Fill-32" fill="#815B4B"></path>
            <path d="M965.996327,124.458658 C966.180328,136.514794 959.439187,150.179302 948.516197,155.178046 C933.71245,161.981223 928.008408,148.486192 928,135.273624 C927.983317,124.634781 932.692079,106.297191 944.827806,102.518018 C956.277709,98.957337 965.84578,114.566677 965.996327,124.458658" id="Fill-33" fill="#F0AA93"></path>
            <polyline id="Fill-34" fill="#F0AA93" points="941.9255 153 870 153.05598 870.082778 242 942 241.94402 941.9255 153"></polyline>
            <path d="M919.587486,202.665719 C926.745289,187.474634 930.997287,172.105903 929.798847,153 L870,153.048977 L870.065668,231 C888.846692,228.080489 911.970008,218.842981 919.587486,202.665719" id="Fill-35" fill="#EA8A71"></path>
            <path d="M935.17111,156.971003 C928.321917,174.205049 918.964104,188.354257 902.72409,198.33568 C886.830661,208.092931 870.409102,213.093944 855.052056,200.4546 C842.839038,190.389937 834.91708,175.715737 830.46923,160.922859 C820.228449,126.867672 827.985366,79.7190285 849.655222,52.2653774 C873.437601,22.0994101 919.442722,28.7792408 937.250624,62.4009183 C951.741206,89.776274 946.237095,129.139886 935.17111,156.971003" id="Fill-36" fill="#F0AA93"></path>
            <path d="M947.489125,145 C946.608156,145 945.807275,144.410722 945.559002,143.506781 C941.987072,130.507523 944.718077,118.199706 952.062156,114.237404 C953.031222,113.709424 954.256571,114.091924 954.769134,115.089037 C955.281698,116.086969 954.913293,117.325188 953.936218,117.85235 C948.434165,120.820807 946.44798,131.604348 949.41124,142.403418 C949.715575,143.490435 949.090888,144.619953 948.025716,144.923991 L947.489125,145" id="Fill-37" fill="#EA8A71"></path>
            <path d="M958.991162,128 L958.205529,127.826621 C955.159199,126.429287 951.150869,125.637064 949.074554,127.029248 C948.144622,127.652383 946.894023,127.356265 946.308807,126.347747 C945.715574,125.342663 946.004174,124.016569 946.942123,123.387426 C951.367319,120.415946 957.89288,123.010626 959.776795,123.878381 C960.802927,124.345303 961.27591,125.607882 960.834994,126.697081 C960.514327,127.512478 959.768778,128 958.991162,128" id="Fill-38" fill="#EA8A71"></path>
            <path d="M852.995482,118.110695 C852.899487,121.978758 851.035572,125.063638 848.819673,124.999003 C846.619774,124.928491 844.907852,121.757989 845.003848,117.889927 C845.099844,114.028579 846.971758,110.943699 849.179657,111.00078 C851.395555,111.065415 853.099477,114.248508 852.995482,118.110695" id="Fill-39" fill="#1A1E2F"></path>
            <path d="M901.996743,119.114937 C901.884842,122.977303 900.030494,126.063669 897.808473,125.999002 C895.610431,125.941894 893.907947,122.756429 894.003862,118.893223 C894.08379,115.023298 895.97011,111.944491 898.168153,112.000759 C900.382181,112.058707 902.084664,115.250891 901.996743,119.114937" id="Fill-40" fill="#1A1E2F"></path>
            <path d="M909.999496,132.296337 C909.925675,135.057219 904.938654,137.161391 898.877127,136.990259 C892.799195,136.825027 887.927007,134.456991 888.000828,131.695265 C888.074649,128.947871 893.053468,126.845385 899.123197,127.00893 C905.201129,127.180906 910.056912,129.541355 909.999496,132.296337" id="Fill-41" fill="#EA8A74"></path>
            <path d="M854.999344,134.303566 C854.925496,137.058753 849.936649,139.161396 843.864698,138.99025 C837.792748,138.82585 832.926982,136.463538 833.00083,133.702449 C833.066472,130.947262 838.055318,128.844619 844.127269,129.00902 C850.19922,129.174264 855.064986,131.549222 854.999344,134.303566" id="Fill-42" fill="#EA8A74"></path>
            <path d="M862.332349,104 C861.711822,104 861.091296,103.842351 860.527922,103.506819 C852.550885,98.8489985 845.496473,100.723086 842.589794,102.561766 C840.85885,103.656881 838.605357,103.092041 837.543929,101.317433 C836.482502,99.5360797 837.02138,97.2025327 838.752324,96.1082611 C844.059463,92.7453568 853.898081,90.9361835 864.136777,96.9251711 C865.90038,97.946941 866.520907,100.257726 865.524798,102.082917 C864.855282,103.313762 863.606063,104 862.332349,104" id="Fill-43" fill="#815B4B"></path>
            <path d="M908.331446,105 C907.46517,105 906.598894,104.692107 905.904239,104.055233 C901.891585,100.397636 893.60476,99.1011126 888.938313,102.895363 C887.344693,104.1902 885.040073,103.905083 883.789694,102.265238 C882.531143,100.619488 882.809005,98.2415435 884.394453,96.9458634 C892.231795,90.5821845 904.351481,92.543419 910.750479,98.371449 C912.27872,99.7523268 912.425824,102.143768 911.077376,103.717817 C910.358204,104.563889 909.344825,105 908.331446,105" id="Fill-44" fill="#815B4B"></path>
            <path d="M865.391414,151 C863.305668,151 860.821425,150.596409 858.150652,150.108326 C857.48084,149.98364 856.904292,149.872898 856.471881,149.809734 C855.488358,149.671103 854.742238,148.890991 854.66593,147.930411 L854.462443,145.409607 C853.97916,139.80691 853.428048,133.464296 855.3527,128.249604 C856.700804,124.581191 858.98156,121.504219 861.177528,118.531426 C862.983479,116.087731 864.696165,113.776106 865.874697,111.22167 C866.349501,110.178239 867.612818,109.718047 868.672649,110.178239 C869.740958,110.637611 870.215762,111.848384 869.740958,112.885252 C868.401332,115.822772 866.485159,118.413302 864.628336,120.91934 C862.500196,123.794516 860.499237,126.50317 859.346141,129.621157 C857.735199,134.007339 858.235439,139.882378 858.684807,145.06918 L858.761115,146.042884 L858.947645,146.071595 C863.695685,146.948503 866.451244,147.136354 867.188886,146.628584 C867.841742,145.681129 869.122017,145.486716 870.088582,146.119993 C871.063626,146.75327 871.275592,148.069043 870.631215,149.009935 C869.596821,150.485667 867.739998,151 865.391414,151" id="Fill-45" fill="#EA8A71"></path>
            <path d="M866.063735,171 C862.833549,171 860.015376,169.950958 857.72458,167.863398 C856.859352,167.074862 856.752228,165.690758 857.493853,164.768899 C858.235477,163.846163 859.53744,163.74003 860.402669,164.525935 C863.863583,167.677448 868.733583,166.652088 872.202738,165.239038 C873.273973,164.805738 874.452332,165.374116 874.864346,166.504731 C875.268119,167.6371 874.740742,168.90367 873.677747,169.33697 C870.950217,170.446534 868.395732,171 866.063735,171" id="Fill-46" fill="#EA8A71"></path>
            <path d="M959.264919,63.8824191 C961.116078,75.7108835 962.172712,87.6659083 962.688743,99.6201112 C962.893517,104.306133 961.746782,110.842072 963,115.376056 C961.542008,110.102433 954.219284,99.6833914 946.208519,106.858707 C942.874795,109.857531 942.956705,121.944869 940.917154,125.75976 C938.992277,129.338789 938.124035,130.348807 931.055231,133 C933.709104,109.006947 935.380061,103.615803 928,89.0112287 C928,89.0112287 929.703721,24.149035 959.264919,63.8824191" id="Fill-47" fill="#815B4B"></path>
            <path d="M658.894375,859.680276 C855.342523,780.569113 933.495673,722.330042 933.495673,722.330042 C988.485299,619.40392 879.530031,566.450467 879.530031,566.450467 C812.335169,551.319025 769.113108,611.210058 769.113108,611.210058 L589.080919,785.976732 C589.080919,785.976732 557.626424,806.428415 569.801105,850.439512 C581.975787,894.45061 569.801105,850.439512 569.801105,850.439512 C569.801105,850.439512 591.109069,884.583353 658.894375,859.680276" id="Fill-48" fill="#1E304B"></path>
            <path d="M751.548416,1136.66875 C730.94563,1154.51392 701.028238,1147.73738 701.028238,1147.73738 C682.118267,1063.91793 631.267784,866.077618 627.204205,773.558445 C627.204205,773.558445 622.207513,742.936076 661.647603,711.826721 C765.173505,630.169823 895.734885,603.550648 895.734885,603.550648 C895.734885,603.550648 996.667891,582.965152 1010.73889,691.802499 C1013.71164,714.773402 990.648079,749.877697 974.7604,763.851732 C954.264963,781.886739 927.857064,786.674064 901.597802,789.909635 C885.429364,791.907104 869.302213,793.879812 853.199836,796.331253 C842.935602,797.89126 756.593828,803.157317 748.6087,810.717988 C748.6087,810.717988 779.558295,967.106673 751.548416,1136.66875" id="Fill-49" fill="#1E304B"></path>
            <path d="M807.580086,396.110709 L823.051827,561.124497 C854.094275,576.897461 871.504108,566.854348 919.519287,566.790033 C934.859073,566.774366 980.358857,575.178258 987.030839,559.060629 C991.080213,549.266532 1002.49433,528.64187 1002.14795,518.245022 C1001.79332,507.824261 1013.20744,490.919179 1014.06515,480.513261 C1014.90636,470.125483 1014.71668,459.801196 1019.8052,450.464729 C1029.28123,433.069859 1029.14927,407.318922 1033.46256,387.786799 C1037.84182,367.965256 1040.81081,358.139001 1040.8273,337.75511 C1040.8273,326.924545 1050.12189,314.800248 1052.77749,304.266523 C1055.59803,293.074801 1054.01457,279.576792 1042.96333,274.522253 C1033.14092,270.023466 1021.95772,267.219145 1011.77243,263.459162 L944.805192,237.99682 C944.805192,237.99682 883.643981,257.489364 868.757791,233 L822.284838,255.107217 C822.284838,255.107217 791.679491,272.39242 807.580086,396.110709" id="Fill-50" fill="#D25C41"></path>
            <path d="M1013.99485,354.857713 C1013.99485,354.857713 1021.00885,420.097035 1015.56638,455.451003 C1012.54738,475.106138 1016.12055,491.274938 1020.90133,510.147898 C1023.27517,519.467919 1027.89052,528.674785 1028,538.43669 C1028.08075,547.732758 1025.51667,556.980096 1025.40915,566.428965 C1025.16928,584.963286 1021.09156,603.035074 1024.8467,621.305091 C1026.87315,631.142157 1028.27099,641.375679 1027.72509,651.427492 C1027.10475,663.114686 1017.03039,722.450942 1015.55811,733.92339 C973.316936,735.798296 975.227591,702.933741 962.671863,671.109883 C939.80191,613.161223 875.559262,605.017355 821.606026,610.435587 C807.561476,611.847962 783.765146,615.878599 770.961281,607.140046 C757.346835,597.831589 795.328326,534.308591 791.18444,517.656611 C786.651805,499.435325 786.155531,489.865867 792.218343,472.973535 C799.621095,452.329738 806.37869,431.838741 811.176004,410.422681 C815.31989,391.904053 819.521675,373.891733 833.988058,360.459306 C876.171333,321.329093 948.528058,328.04159 997.485472,347.871826 L1013.99485,354.857713" id="Fill-51" fill="#D25C41"></path>
            <path d="M1022.53421,552.481712 C1047.86584,575.091725 1069.3378,575.091725 1095.14879,548.754914 C1096.77695,536.009034 1098.09106,523.215289 1099.19028,510.411641 C1105.27317,439.206359 1075.8422,321.264256 1052.4776,296.323757 C1031.40235,273.828453 1005.04588,280.909039 991.987493,309.359298 C977.466231,341.057713 1006.74017,435.184949 1013.93881,480.674003 C1013.93881,480.674003 1020.00518,510.673243 1022.53421,552.481712" id="Fill-55" fill="#F0AA93"></path>
            <path d="M1115,454.208852 L1068.65293,307.268677 C1057.17368,277.071965 1037.70526,272 1033.76031,272 C973.519042,271.992576 986.089981,343.452932 986.089981,343.452932 L1015.39185,485.996688 C1015.39185,485.996688 1049.71382,495.785936 1115,454.208852" id="Fill-56" fill="#F8D4BE"></path>
            <path d="M673.770288,864.908665 C673.770288,864.908665 604.596496,1023.40556 462.996178,1190 C462.996178,1190 419.0282,1189.76864 398,1161.7743 C398,1161.7743 540.76095,836.972161 596.231378,781 C596.231378,781 678.905752,785.461908 673.770288,864.908665" id="Fill-58" fill="#1E304B"></path>
            <path d="M737.187542,479 C737.187542,479 707.822154,529.044769 601,552.314114 L601,574.989236 C601,574.989236 763.201355,577.6797 787,497.990445 C787,497.990445 779.629831,494.053101 737.187542,479" id="Fill-59" fill="#F0AA93"></path>
            <path d="M663.204135,985.441209 C654.734254,950.461974 624.254252,834.474065 626.078534,804.489504 C626.468627,798.00881 626.669859,791.982178 626.85872,786.318794 C627.894569,755.079373 630.839929,735.162739 660.599148,709.727048 C688.606661,685.785631 727.366598,666.529153 763.555339,650.174689 C776.528195,644.31317 788.783543,638.773621 800.032733,633.209306 C801.047139,632.713966 802.28422,633.126749 802.787299,634.142195 C803.290379,635.165897 802.869772,636.404246 801.855365,636.907842 C790.540198,642.496924 778.260108,648.052984 765.246016,653.931015 C729.312939,670.1699 690.766298,689.349752 663.204135,712.919665 C634.823024,737.174797 631.969513,756.309467 630.969127,786.450885 C630.780266,792.155547 630.579034,798.215202 630.185643,804.737174 C629.185176,821.173254 638.702114,867.013994 649.969991,918.396734 C654.724809,940.079222 659.070217,963.651382 664.234234,984.958253 C664.498144,986.064512 663.435057,986.39061 663.204135,985.441209 Z" id="Fill-60" fill="#1A1E2F"></path>
            <path d="M828.655656,94 C823.962963,98.3034714 821,104.619195 821,111.662077 C821,117.060474 822.737738,122.0333 825.668669,126 C825.860861,116.444735 826.98999,106.732813 829,97.3300173 C828.863864,96.2283889 828.751752,95.1167077 828.655656,94" id="Fill-66" fill="#FFFFFE"></path>
            <path d="M830,93 C829.656977,93.3299814 829.325581,93.6763501 829,94.0391061 C829.069767,95.0320298 829.151163,96.0204842 829.25,97 C829.482558,95.6577281 829.732558,94.3258845 830,93" id="Fill-67" fill="#9C7C6B"></path>
            <path d="M844.152235,89 C839.023144,89 834.278532,90.7101067 830.4583,93.5987107 C830.082003,95.0749425 829.730247,96.557809 829.403033,98.0522863 C827.349761,107.36084 826.196329,116.975421 826,126.434915 C828.028731,129.102085 830.621907,131.310627 833.591381,132.877257 C834.826616,130.90259 838.826816,129.504316 843.61233,129.504316 C843.8332,129.503487 844.05407,129.505975 844.283121,129.51261 C849.003192,129.63867 852.987031,131.085045 854.484038,133 C854.500399,132.991707 854.51676,132.982584 854.533121,132.97429 C854.73763,131.467373 855.056664,130.002752 855.547486,128.618577 C856.848164,124.909752 859.048683,121.798884 861.167398,118.793343 C862.909816,116.322728 864.562251,113.985637 865.699322,111.403061 C865.952913,110.815886 866.443735,110.411995 867,110.248615 C866.78731,107.723263 866.181963,105.31319 865.233041,103.082256 C864.529529,104.027708 863.43336,104.547706 862.31265,104.547706 C861.690942,104.547706 861.069234,104.392619 860.504789,104.06254 C856.782721,101.929468 853.265164,101.189694 850.271149,101.188035 C846.835395,101.188035 844.086792,102.16666 842.532522,103.132846 C841.927175,103.50605 841.264565,103.682701 840.610136,103.682701 C839.3749,103.682701 838.172386,103.050741 837.477055,101.908734 C836.413607,100.156331 836.953512,97.860708 838.687749,96.7842199 C841.485435,95.0434275 845.534717,93.7264297 850.246608,93.7264297 C853.363328,93.7264297 856.766361,94.3036529 860.275738,95.7176839 C856.136472,91.5643307 850.442937,89 844.152235,89 M848.528731,125.17763 C848.50419,125.17763 848.479649,125.17763 848.455108,125.176801 C846.205507,125.107136 844.454908,121.974705 844.553073,118.153089 C844.643057,114.372941 846.532721,111.346666 848.765962,111.345836 C848.782322,111.345836 848.806864,111.346666 848.823224,111.346666 C851.089186,111.410525 852.831604,114.555396 852.725259,118.371207 C852.627095,122.153014 850.761971,125.17763 848.528731,125.17763" id="Fill-68" fill="#F4C0AA"></path>
            <path d="M849.123659,111 C846.939759,111.000839 845.091844,114.063917 845.003848,117.890035 C844.907852,121.758124 846.619774,124.928649 848.819673,124.999161 C848.843672,125 848.867671,125 848.89167,125 C851.07557,125 852.899487,121.938602 852.995482,118.110805 C853.099477,114.248591 851.395555,111.065475 849.179657,111.000839 C849.163658,111.000839 849.139659,111 849.123659,111" id="Fill-69" fill="#363E52"></path>
            <path d="M844.072435,129.000154 C839.262334,129.000154 835.241582,130.402197 834,132.382188 C837.173845,134.054494 840.783477,135 844.615114,135 C848.356304,135 851.883712,134.101063 855,132.505262 C853.495301,130.585145 849.490995,129.13487 844.746672,129.00847 C844.516445,129.001817 844.29444,128.999323 844.072435,129.000154" id="Fill-70" fill="#EFA48F"></path>
            <path d="M850.643394,93 C845.815116,93 841.665815,94.3387492 838.799025,96.1082925 C837.02195,97.2025598 836.46871,99.5360975 837.558426,101.317443 C838.270932,102.478311 839.503149,103.120708 840.768895,103.120708 C841.439489,103.120708 842.118466,102.94114 842.738765,102.561772 C844.331427,101.579629 847.147922,100.584841 850.668541,100.584841 C853.736509,100.586527 857.340953,101.338519 861.154957,103.506821 C861.733345,103.842351 862.370409,104 863.007474,104 C864.155866,104 865.279111,103.471413 866,102.510346 C864.801313,99.6886879 863.066151,97.1511343 860.920249,95.0241416 C857.324188,93.5867566 853.837099,93 850.643394,93" id="Fill-71" fill="#9C7C6B"></path>
            <path d="M867,118 C866.411543,118.837585 865.814304,119.659628 865.225847,120.472172 C863.161857,123.302693 861.212045,125.979512 860,129 C863.258469,126.065861 865.717691,122.28032 867,118" id="Fill-72" fill="#F4C0AA"></path>
            <path d="M867.915254,110 C867.338983,110.165353 866.830508,110.574119 866.567797,111.168382 C865.389831,113.782133 863.677966,116.147434 861.872881,118.647872 C859.677966,121.689694 857.398305,124.838114 856.050847,128.591709 C855.542373,129.992592 855.211864,131.474892 855,133 C856.923729,132.030545 858.694915,130.810123 860.279661,129.380702 C861.449153,126.444639 863.330508,123.842639 865.322034,121.091234 C865.889831,120.301401 866.466102,119.502336 867.033898,118.688161 C867.661017,116.572987 868,114.332749 868,112.01613 C868,111.337092 867.974576,110.664769 867.915254,110" id="Fill-73" fill="#EFA48C"></path>
            <path d="M903.004103,93 C900.804639,93 898.679037,93.3085596 896.668332,93.8846469 C896.758608,93.8830057 896.848885,93.882185 896.939161,93.882185 C902.454237,93.882185 907.952899,95.8886431 911.596789,99.108003 C913.13149,100.451386 913.279215,102.777893 911.925067,104.309202 C911.202855,105.132301 910.185192,105.55657 909.167529,105.55657 C908.297591,105.55657 907.427654,105.257038 906.730062,104.637457 C904.391079,102.573554 900.607672,101.281871 896.930955,101.281871 C894.2719,101.281871 891.662087,101.958076 889.692417,103.509081 C889.019447,104.041674 888.215165,104.299354 887.41909,104.299354 C886.327565,104.299354 885.244246,103.81764 884.522034,102.896065 C884.439964,102.799229 884.374309,102.699932 884.308653,102.598173 C881.59215,106.373925 880,111.001499 880,116.003283 C880,128.706747 890.299732,139 903.004103,139 C915.708475,139 926,128.706747 926,116.003283 C926,103.299818 915.708475,93 903.004103,93 M898.77752,126.255504 C898.752899,126.255504 898.728278,126.255504 898.703657,126.254683 C896.446744,126.19888 894.698662,123.086203 894.797145,119.311271 C894.879215,115.564242 896.775022,112.576301 899.015522,112.576301 C899.031936,112.576301 899.056557,112.576301 899.072971,112.576301 C901.346298,112.632925 903.09438,115.752168 903.004103,119.52792 C902.897413,123.26264 901.026227,126.255504 898.77752,126.255504 M899.983943,137.324259 C899.754148,137.324259 899.524353,137.320976 899.294558,137.315232 C893.213202,137.154387 888.338269,134.849217 888.412132,132.160809 C888.477788,129.584829 893.106512,127.58986 898.876004,127.58986 C899.097591,127.58986 899.319179,127.593142 899.540767,127.598887 C905.622123,127.766297 910.480642,130.064081 910.423194,132.745924 C910.357538,135.331752 905.728814,137.324259 899.983943,137.324259" id="Fill-74" fill="#F4C0AA"></path>
            <path d="M898.112202,112 C895.930146,112 894.08379,115.058012 894.003862,118.892915 C893.907947,122.756374 895.610431,125.942048 897.808473,125.99916 C897.832452,126 897.85643,126 897.880409,126 C900.070458,126 901.892835,122.936949 901.996743,119.114644 C902.084664,115.250345 900.382181,112.057952 898.168153,112 C898.152167,112 898.128188,112 898.112202,112" id="Fill-75" fill="#363E52"></path>
            <path d="M898.458808,127 C892.692565,127 888.066447,129.049401 888.000828,131.695667 C887.927007,134.457427 892.799195,136.825493 898.877127,136.990727 C899.106792,136.996628 899.336458,137 899.566123,137 C905.307759,137 909.933877,134.953128 909.999496,132.296746 C910.056912,129.54173 905.201129,127.181251 899.123197,127.009273 C898.901734,127.003372 898.680271,127 898.458808,127" id="Fill-76" fill="#EFA48F"></path>
            <path d="M896.832762,93 C896.74104,93 896.649318,93.0008435 896.557596,93.0025306 C891.429494,94.4846057 887.026831,97.6900042 884,101.959089 C884.066707,102.063686 884.133414,102.165753 884.216798,102.265289 C884.950575,103.212569 886.051241,103.707718 887.160245,103.707718 C887.969068,103.707718 888.786228,103.442851 889.469975,102.895403 C891.471186,101.301139 894.12279,100.606073 896.824424,100.606073 C900.560017,100.606073 904.404009,101.933783 906.780446,104.055251 C907.489208,104.692113 908.373076,105 909.256944,105 C910.290903,105 911.324862,104.563897 912.058639,103.717841 C913.434471,102.143821 913.284381,99.7524251 911.725104,98.3715732 C908.022865,95.0624209 902.436152,93 896.832762,93" id="Fill-77" fill="#9C7C6B"></path>
            <path d="M843.995905,91.0865306 C832.472563,91.0865306 823.086814,100.468595 823.086814,112.002457 C823.086814,123.533862 832.472563,132.913469 843.995905,132.913469 C855.527437,132.913469 864.913186,123.533862 864.913186,112.002457 C864.913186,100.468595 855.527437,91.0865306 843.995905,91.0865306 Z M843.995905,137 C830.212121,137 819,125.786409 819,112.002457 C819,98.216048 830.212121,87 843.995905,87 C857.779689,87 869,98.216048 869,112.002457 C869,125.786409 857.779689,137 843.995905,137 L843.995905,137 Z" id="Fill-78" fill="#1A1E2F"></path>
            <path d="M903,95.0865306 C891.466579,95.0865306 882.087484,104.468595 882.087484,116.002457 C882.087484,127.533043 891.466579,136.913469 903,136.913469 C914.533421,136.913469 923.912516,127.533043 923.912516,116.002457 C923.912516,104.468595 914.533421,95.0865306 903,95.0865306 Z M903,141 C889.213958,141 878,129.786409 878,116.002457 C878,102.216048 889.213958,91 903,91 C916.786042,91 928,102.216048 928,116.002457 C928,129.786409 916.786042,141 903,141 L903,141 Z" id="Fill-79" fill="#1A1E2F"></path>
            <path d="M879.965563,114 C879.443196,114 878.928991,113.801385 878.537216,113.400818 C874.080773,108.909453 869.885514,112.581323 869.412119,113.014437 C868.595921,113.784695 867.298166,113.733789 866.539101,112.890094 C865.780037,112.048902 865.829009,110.743719 866.645207,109.963446 C869.175422,107.541681 875.517282,104.510719 881.39391,110.436617 C882.193784,111.243594 882.201946,112.561295 881.418396,113.380789 C881.010296,113.79304 880.48793,114 879.965563,114" id="Fill-80" fill="#1A1E2F"></path>
            <path d="M926.034821,119 C925.002283,119 924.11725,118.184073 924.010718,117.095603 C923.895991,115.930721 924.715466,114.892345 925.838147,114.775177 L942.752115,113.008325 C943.801043,112.90729 944.874556,113.736802 944.989282,114.901684 C945.104009,116.066567 944.284534,117.105792 943.161853,117.223809 L926.247885,118.989812 L926.034821,119" id="Fill-81" fill="#1A1E2F"></path>
            <path d="M836.474703,46.6559822 C842.925237,58.0599968 849.847761,57.7003886 861.142405,58.3957954 C869.936329,58.9360288 880.022016,59.0123839 889.337613,58.4319204 C899.506105,57.7997324 905.98148,53.5517575 914.86649,49.1321887 C915.570335,55.5681909 913.425678,58.6601649 918.45196,64.4401694 C921.466073,67.9163824 926.177695,70.7324925 930.003301,73.2965485 C937.729036,78.4722798 947.847845,70.7604073 954.232134,64.7439481 C962.305652,57.1281353 963.20823,47.770932 956.65833,39.4671016 C953.677339,35.6838259 950.149833,33.0992444 945.628663,31.295456 C942.871246,30.1952847 940.5941,29.8151509 937.497181,29.7593213 C935.625781,29.7231963 930.384205,31.4153254 929.233211,31.0072768 L928.719818,31.0236973 C924.256612,25.4473066 919.644356,19.4070376 914.667757,14.2066756 C907.397451,6.62206172 899.862168,3.73041742 890.024897,1.91841884 C870.838907,-1.61362369 851.826808,-0.641532024 833.816653,7.98249745 C834.123033,7.49891468 834.487376,7.475105 834.942805,7.23044004 C834.942805,7.23044004 822.86151,22.5950714 836.474703,46.6559822" id="Fill-82" fill="#815B4B"></path>
            <path d="M601,552.571638 L557.489993,545 L486.704308,563.720287 C486.704308,563.720287 478.523003,575 498.010447,575 L601,575 L601,552.571638" id="Fill-83" fill="#F0AA93"></path>
            <path d="M1018.96943,513 C965.698831,539.910908 923.642664,543.870228 844.639033,543.997358 L840,562.354807 C919.819376,575.015489 1030.31569,578.481244 1068.69689,567.086879 C1070.29542,542.514171 1067.18076,520.56633 1018.96943,513" id="Fill-84" fill="#F0AA93"></path>
            <path d="M850.773148,548.737702 C848.251768,544.210574 831.544524,539.213074 823.60011,537.564294 C801.858373,533.049545 782.778551,531.805946 761.648559,534.18339 C754.382024,534.999527 738.600664,536.885143 731.623468,539.54481 C727.366055,541.171308 719.421641,541.870265 720.033386,546.938734 C722.877172,549.027353 741.122044,547.971903 753.199869,546.880144 C735.442739,549.453163 730.821586,553.572635 730.151974,555.777609 C733.673639,560.937677 754.927634,554.726286 769.402836,553.642779 C774.07359,553.284635 741.204712,560.674434 756.291659,564.075969 C759.56532,564.809585 781.910535,561.641585 792.417664,560.756955 C791.169374,561.66139 776.677638,566.787624 776.851241,568.03865 C776.694172,571.216552 790.665098,569.783154 797.634027,568.9043 C807.041669,567.728369 860.734666,566.580496 850.773148,548.737702" id="Fill-85" fill="#F0AA93"></path>
            <path d="M1377,597.999171 C1377,585.300191 1366.75103,575 1354.09879,575 L977.901209,575 C965.248973,575 955,585.300191 955,597.999171 C955,610.706445 965.248973,621 977.901209,621 L1354.09879,621 C1366.75103,621 1377,610.706445 1377,597.999171" id="Fill-86" fill="#8E4D3C"></path>
            <path d="M955.113337,597.999171 C955.113337,585.300191 965.3558,575 978,575 L22.8891387,575 C10.2457638,575 0,585.300191 0,597.999171 C0,610.706445 10.2457638,621 22.8891387,621 L978,621 C965.3558,621 955.113337,610.706445 955.113337,597.999171" id="Fill-87" fill="#AE5E4B"></path>
            <polygon id="Fill-88" fill="#B47866" points="78 649 321 649 321 621 78 621"></polygon>
            <polyline id="Fill-89" fill="#B47866" points="77.8689306 1262 57 1262 128.753719 649 163 649 77.8689306 1262"></polyline>
            <polyline id="Fill-90" fill="#B47866" points="320.138364 1262 341 1262 269.249215 649 235 649 320.138364 1262"></polyline>
            <polygon id="Fill-91" fill="#DDA883" points="1048 649 1291 649 1291 621 1048 621"></polygon>
            <polyline id="Fill-92" fill="#DDA883" points="1048.86478 1262 1028 1262 1099.75105 649 1134 649 1048.86478 1262"></polyline>
            <polyline id="Fill-93" fill="#DDA883" points="1291.12859 1262 1312 1262 1240.24628 649 1206 649 1291.12859 1262"></polyline>
            <polygon id="Fill-94" fill="#152E41" points="513 575 836 575 836 562 513 562"></polygon>
            <polyline id="Fill-95" fill="#041420" points="435.777137 575 684 575 662.22947 400 414 400 435.777137 575"></polyline>
            <polyline id="Fill-96" fill="#152E41" points="693 575 684.043701 575 662 400 670.947936 400 693 575"></polyline>
            <path d="M529,482.998752 C529,494.045658 537.958775,503 549.000832,503 C560.050376,503 569,494.045658 569,482.998752 C569,471.952678 560.050376,463 549.000832,463 C537.958775,463 529,471.952678 529,482.998752" id="Fill-97" fill="#0F2131"></path>
            <path d="M710,551.879385 C710,556.365466 706.355766,560 701.860385,560 L405.883318,560 C401.386284,560 397.742876,556.365466 397.742876,551.879385 L351,369.120615 C351,364.632885 354.643407,361 359.141268,361 L655.12164,361 C659.608758,361 663.261255,364.632885 663.261255,369.120615 L710,551.879385" id="Fill-98" fill="#80A3C2"></path>
            <path d="M630,560 L890.372157,560 C890.372157,560 910.016147,560.608174 911,575 L630,575 L630,560" id="Fill-99" fill="#0C091D"></path>
            <path d="M701,551.879385 C701,556.365466 697.392826,560 692.935449,560 L399.758056,560 C395.302329,560 391.691028,556.365466 391.691028,551.879385 L345,369.120615 C345,364.632885 348.611301,361 353.067028,361 L646.240294,361 C650.697671,361 654.313099,364.632885 654.313099,369.120615 L701,551.879385" id="Fill-100" fill="#111125"></path>
            <path d="M386,575 L720,575 C719.025628,560.608174 699.406061,560 699.406061,560 L398.500868,560 C398.500868,560 386,560.127611 386,575" id="Fill-101" fill="#111125"></path>
        </g>
        <g id="FRAME" transform="translate(1361.000000, 230.000000)">
            <polygon id="Fill-176" fill="#D3AE8F" points="0 492 199 492 199 10 0 10"></polygon>
            <polygon id="Fill-177" fill="#2E1D23" points="0 482 199 482 199 0 0 0"></polygon>
            <polygon id="Fill-178" fill="#D3AE8F" points="15 467 184 467 184 15 15 15"></polygon>
            <polygon id="Fill-179" fill="#FFFFFE" points="23 460 177 460 177 22 23 22"></polygon>
            <polygon id="Fill-180" fill="#ED994F" points="45 433 154 433 154 50 45 50"></polygon>
            <path d="M131,233.998575 C131,256.642557 112.642557,275 89.998575,275 C67.3545932,275 49,256.642557 49,233.998575 C49,211.354593 67.3545932,193 89.998575,193 C112.642557,193 131,211.354593 131,233.998575" id="Fill-181" fill="#FFFFFE"></path>
            <path d="M75.1525216,241.127241 C75.1525216,241.127241 109.894042,189.540229 154,186 L154,380 C154,380 62.7871369,281.209932 75.1525216,241.127241" id="Fill-182" fill="#1A3B37"></path>
            <path d="M45,229.232398 C45,229.232398 66.16833,223.277687 106.701436,271.652601 C144.712406,317.021696 154,375.350542 154,375.350542 L154,432 L45,432 L45,229.232398" id="Fill-183" fill="#216458"></path>
        </g>
        <g id="bush-1" transform="translate(1542.000000, 1470.000000)">
            <polyline id="Fill-159" fill="#3A3852" points="243 347 237.344992 378.151953 235.644648 387.493373 235.625435 387.640784 232.99006 402.112775 232.436087 405.179581 231.885316 408.239977 230.713327 414.668412 210.48851 526.050824 210.366828 526.733404 207.712241 541.356011 207.302365 543.592824 206.594688 547.480009 200.331271 582 64.6719311 582 58.408514 547.480009 57.7008375 543.592824 57.2909615 541.356011 54.6363742 526.733404 54.5146922 526.050824 53.5188217 520.609407 34.2898748 414.668412 33.1178857 408.239977 32.5639127 405.179581 32.0131419 402.112775 29.3777675 387.640784 29.3553524 387.493373 28.2410021 381.369375 27.6582097 378.151953 22 347 243 347"></polyline>
            <polyline id="Fill-160" fill="#2E2D41" points="233 402 232.445963 405.003138 231.895129 408 33.1048707 408 32.5508341 405.003138 32 402 233 402"></polyline>
            <polyline id="Fill-161" fill="#2E2D41" points="237 381 235.883074 387 29.1169262 387 28 381 237 381"></polyline>
            <polyline id="Fill-162" fill="#2E2D41" points="208 542 207.591272 544.191523 206.885577 548 59.1144226 548 58.408728 544.191523 58 542 208 542"></polyline>
            <polyline id="Fill-163" fill="#2E2D41" points="211 521 210.010278 526.33124 209.888565 527 54.1178414 527 53.996128 526.33124 53 521 211 521"></polyline>
            <path d="M69.6121241,348 C69.6121241,348 -21.1785005,231.622711 4.61174528,130 C4.61174528,130 107.782328,153.256238 99.5300891,348 L69.6121241,348" id="Fill-164" fill="#1A3B37"></path>
            <path d="M207.564818,348 C207.564818,348 265.479698,329.680107 281,130 C281,130 138.27993,223.963529 164.131064,348 L207.564818,348" id="Fill-165" fill="#1A3B37"></path>
            <path d="M129.279419,347 L86.9074506,347 C86.9074506,347 27.6020949,248.401102 124.842345,66 C124.842345,66 137.104453,106.018408 145.991434,156.969203 C157.531675,223.121951 163.377191,307.696377 129.279419,347" id="Fill-166" fill="#216458"></path>
            <path d="M129.44522,348 L100.386924,348 C87.2858276,264.982738 131.727552,181.298361 146.049505,157 C157.515356,223.490143 163.32319,308.49592 129.44522,348" id="Fill-167" fill="#1A3B37"></path>
            <path d="M107.261576,345 L107.124868,344.996809 C105.878591,344.923409 104.927988,343.847938 105.00429,342.596945 L116.484656,148.134565 C116.560959,146.883572 117.619658,145.942136 118.872292,146.002771 C120.118569,146.076171 121.069172,147.151642 120.996049,148.402635 L109.515683,342.865015 C109.44256,344.071329 108.447446,345 107.261576,345" id="Fill-168" fill="#1A3B37"></path>
            <path d="M163.290405,348 C163.290405,348 251,306.709483 251,0 C251,0 82.0867064,227.372431 124.97506,348 L163.290405,348" id="Fill-169" fill="#216458"></path>
            <path d="M142.271828,347 L141.579152,346.894538 C140.385322,346.507846 139.727758,345.232719 140.107613,344.037488 L223.573533,82.5822089 C223.953388,81.3869774 225.230211,80.7254456 226.420848,81.1089423 C227.614678,81.4892432 228.272242,82.7675656 227.892387,83.9627971 L144.429659,345.421272 C144.123222,346.383209 143.232638,347 142.271828,347" id="Fill-170" fill="#1A3B37"></path>
        </g>
    </g>
</svg>